<?xml version="1.0" standalone="no"?>
<!DOCTYPE svg PUBLIC "-//W3C//DTD SVG 20010904//EN"
 "http://www.w3.org/TR/2001/REC-SVG-20010904/DTD/svg10.dtd">
<svg version="1.0" xmlns="http://www.w3.org/2000/svg"
 width="1920.000000pt" height="1600.000000pt" viewBox="0 0 1920.000000 1600.000000"
 preserveAspectRatio="xMidYMid meet">

<g transform="translate(0.000000,1600.000000) scale(0.100000,-0.100000)"
fill="#000000" stroke="none">
<path d="M9675 13361 c-63 -35 -294 -168 -405 -234 -47 -28 -159 -93 -250
-145 -91 -52 -190 -110 -220 -127 -73 -42 -335 -194 -485 -282 -66 -38 -199
-115 -295 -171 -184 -106 -220 -135 -239 -191 -8 -25 -11 -603 -11 -2172 0
-2104 0 -2138 19 -2149 11 -5 21 -10 23 -10 2 0 2 964 0 2142 -2 1910 -1 2147
13 2184 25 66 39 77 370 264 55 31 145 83 200 115 55 32 125 73 155 90 30 18
95 55 144 83 49 29 90 52 91 52 2 0 32 17 66 38 97 58 199 114 199 108 0 -3
-78 -51 -172 -107 -95 -56 -190 -112 -210 -125 -21 -13 -40 -24 -44 -24 -3 0
-18 -8 -32 -19 -15 -10 -88 -53 -162 -96 -146 -85 -218 -126 -307 -179 -32
-18 -92 -52 -133 -76 -89 -51 -128 -84 -146 -127 -12 -27 -14 -227 -14 -1173
l0 -1140 24 0 c12 0 51 3 85 6 46 5 61 11 63 23 1 9 4 -11 8 -44 l7 -60 2 60
c2 44 5 55 11 40 5 -11 9 -138 9 -281 l1 -262 38 -19 c20 -11 58 -32 85 -47
l47 -28 0 661 0 661 33 35 c17 19 104 75 192 126 88 50 163 94 167 98 5 4 -8
5 -27 3 -28 -3 -40 1 -66 27 l-31 31 4 93 c5 101 24 168 38 132 8 -19 8 -19
18 5 6 14 11 20 11 13 1 -12 54 1 126 32 51 22 64 24 69 12 2 -7 5 43 5 111 1
67 -1 122 -4 122 -2 0 -34 -18 -70 -40 -36 -22 -67 -40 -69 -40 -3 0 -32 -16
-66 -36 -33 -20 -62 -35 -64 -33 -2 2 -31 36 -64 75 -36 42 -54 70 -43 67 11
-3 37 14 73 49 54 51 119 83 135 67 4 -4 9 6 9 23 1 30 1 31 -14 12 -11 -14
-13 -15 -9 -3 3 9 0 23 -6 30 -10 11 -9 11 6 0 9 -7 17 -10 17 -5 0 5 10 -2
21 -16 11 -14 19 -20 17 -13 -2 6 -35 47 -74 90 -39 43 -100 112 -135 154 -74
87 -190 218 -267 300 l-53 57 142 83 142 83 56 -64 c64 -73 471 -520 474 -520
1 0 3 12 4 27 0 14 8 30 17 35 8 5 13 15 10 22 -3 7 2 16 10 19 9 4 16 13 16
22 0 9 9 15 23 15 12 0 31 7 41 15 10 8 24 11 30 8 6 -4 4 2 -4 12 -14 17 -13
18 2 12 13 -4 16 -2 11 11 -5 15 -4 15 13 -1 16 -15 17 -19 5 -26 -10 -7 -6
-9 12 -8 16 1 22 6 16 12 -15 15 -10 25 9 18 16 -5 16 -5 0 8 -9 8 -26 25 -38
39 -12 14 -18 18 -14 10 4 -9 3 -12 -2 -7 -5 5 -9 12 -9 16 0 9 -101 132 -160
196 -21 22 -60 67 -88 100 -28 33 -75 85 -105 117 -30 31 -52 61 -48 66 3 6
34 26 69 45 103 57 141 78 173 98 l31 19 83 -91 c46 -50 98 -109 117 -132 83
-98 207 -225 216 -220 6 3 7 1 4 -4 -4 -6 0 -16 8 -23 12 -10 15 -10 15 0 0 7
7 10 15 6 18 -6 20 5 4 21 -8 8 -2 13 22 18 29 7 92 60 119 102 9 14 10 14 7
2 -4 -12 1 -16 16 -14 37 4 38 5 31 16 -5 8 -9 8 -14 -1 -5 -9 -9 -9 -14 -1
-4 6 -2 11 4 11 7 0 9 7 6 17 -5 13 0 11 20 -7 27 -24 26 -23 -3 15 -17 22
-48 58 -68 80 -20 22 -75 85 -123 140 -47 55 -110 126 -140 158 -30 32 -53 60
-50 62 12 12 264 155 274 155 9 0 208 -212 322 -343 19 -22 37 -35 44 -31 6 4
9 3 5 -2 -3 -5 2 -18 10 -29 15 -20 15 -20 8 3 -4 13 -2 22 5 22 6 0 8 5 5 10
-10 16 7 12 28 -7 19 -17 19 -17 14 2 -9 28 3 43 38 47 20 2 33 11 40 26 11
25 42 37 79 30 20 -4 23 -1 21 27 -1 23 -16 49 -49 88 -26 31 -50 57 -54 59
-4 2 -45 48 -92 103 -46 55 -88 102 -92 103 -4 2 -8 69 -8 148 0 107 -3 146
-12 148 -49 15 -66 13 -113 -13z m-581 -386 c-10 -8 -23 -15 -28 -15 -6 0 -1
7 10 15 10 8 23 15 28 15 6 0 1 -7 -10 -15z m993 -250 c0 -8 -4 -12 -9 -9 -5
3 -6 10 -3 15 9 13 12 11 12 -6z m-997 -750 c7 -9 8 -15 2 -15 -5 0 -12 7 -16
15 -3 8 -4 15 -2 15 2 0 9 -7 16 -15z m-190 -151 c0 -8 -4 -12 -10 -9 -5 3
-10 1 -10 -4 0 -6 5 -11 12 -11 6 0 8 -3 5 -6 -4 -4 -13 -1 -22 6 -14 11 -13
14 2 26 23 17 23 17 23 -2z"/>
<path d="M10095 12670 c-4 -6 -4 -14 -1 -17 3 -4 6 0 6 8 0 12 2 12 10 -1 5
-8 12 -12 15 -9 3 4 -1 12 -9 18 -10 9 -16 9 -21 1z"/>
<path d="M9880 12580 c0 -5 5 -10 10 -10 6 0 10 5 10 10 0 6 -4 10 -10 10 -5
0 -10 -4 -10 -10z"/>
<path d="M9880 12536 c0 -2 8 -10 18 -17 15 -13 16 -12 3 4 -13 16 -21 21 -21
13z"/>
<path d="M10335 12353 c-44 -25 -104 -60 -134 -77 l-53 -31 1 -189 c2 -201 3
-206 53 -232 24 -12 32 -12 62 0 18 8 37 19 40 25 4 6 12 9 17 6 5 -4 13 4 18
17 6 13 10 19 10 15 1 -13 27 16 47 53 16 30 19 62 22 205 2 94 2 189 0 212
l-3 42 -80 -46z"/>
<path d="M9603 12313 c0 -9 4 -10 14 -2 7 6 13 12 13 14 0 1 -6 2 -13 2 -8 0
-14 -6 -14 -14z"/>
<path d="M9619 12293 c-13 -16 -12 -17 4 -4 9 7 17 15 17 17 0 8 -8 3 -21 -13z"/>
<path d="M9410 12220 c0 -5 5 -10 10 -10 6 0 10 5 10 10 0 6 -4 10 -10 10 -5
0 -10 -4 -10 -10z"/>
<path d="M9420 12160 c6 -11 13 -20 16 -20 2 0 0 9 -6 20 -6 11 -13 20 -16 20
-2 0 0 -9 6 -20z"/>
<path d="M9835 12067 c-11 -7 -71 -41 -133 -76 l-113 -65 2 -211 c2 -144 -1
-217 -9 -232 -18 -33 -15 -50 10 -56 19 -5 10 -14 -59 -55 -45 -27 -89 -52
-98 -56 -9 -3 -13 -11 -9 -17 4 -8 3 -9 -4 -5 -15 9 -143 -65 -135 -77 3 -6 1
-7 -6 -3 -7 5 -27 -4 -46 -19 -19 -14 -49 -31 -65 -37 -25 -8 -30 -15 -26 -37
2 -14 9 -25 15 -24 6 2 11 -2 11 -7 0 -13 -6 -13 -30 0 -13 7 -19 6 -24 -6 -5
-12 -1 -14 17 -9 17 5 19 4 7 -4 -8 -6 -28 -9 -45 -6 -24 4 -26 3 -10 -4 l20
-10 -20 0 c-11 -1 -27 -6 -35 -11 -34 -21 40 -3 94 24 43 21 55 32 53 48 -1
11 5 23 13 25 13 4 13 3 0 -6 -12 -8 -12 -13 -3 -22 9 -9 16 -9 25 -2 15 12
42 28 189 106 58 31 109 57 113 57 3 0 6 -196 6 -436 0 -260 -4 -434 -9 -432
-9 3 -152 168 -244 282 -73 89 -127 150 -131 145 -2 -2 -54 -159 -116 -349
-62 -190 -116 -350 -121 -356 -6 -7 -48 3 -135 33 -69 23 -131 40 -137 36 -6
-3 -7 -1 -3 5 4 7 1 12 -8 12 -8 0 -20 2 -28 3 -7 2 -10 2 -5 0 4 -3 5 -9 2
-14 -4 -5 2 -6 12 -3 15 5 15 4 3 -4 -9 -7 -18 -8 -26 -1 -16 13 -45 -27 -37
-49 4 -9 2 -13 -4 -9 -19 12 -36 -19 -24 -42 14 -25 14 -42 0 -18 -14 24 -42
3 -34 -27 3 -12 2 -15 -1 -8 -7 15 -24 6 -24 -14 0 -8 5 -12 10 -9 15 9 12 -4
-5 -21 -17 -18 -20 -38 -4 -28 8 5 8 1 0 -14 -16 -29 -27 -34 -41 -17 -8 10
-9 15 -1 15 6 0 17 14 26 30 9 17 11 30 6 30 -8 0 -19 -19 -21 -38 -1 -4 -8
-10 -15 -15 -8 -4 -11 -15 -8 -24 4 -10 2 -14 -4 -10 -14 9 -45 -37 -33 -49 5
-5 7 -20 3 -33 -4 -17 -8 -19 -14 -9 -12 18 -11 31 1 23 6 -3 10 -1 10 4 0 22
-19 10 -39 -25 -12 -20 -20 -44 -18 -53 3 -11 5 -9 6 5 1 22 31 56 31 36 0 -6
3 -17 6 -26 4 -11 -3 -19 -22 -26 -21 -8 -30 -8 -32 0 -2 6 -12 -1 -23 -14
-25 -31 -24 -48 1 -18 10 12 21 18 24 13 3 -5 -1 -14 -9 -21 -7 -6 -13 -17
-11 -23 1 -7 1 -8 -2 -4 -2 4 -10 0 -16 -9 -16 -21 -40 -9 -33 17 3 10 1 22
-4 25 -5 3 -9 -93 -9 -232 l0 -236 23 6 c26 7 259 -72 251 -85 -9 -15 13 -10
26 6 7 8 24 21 39 28 23 11 31 11 47 0 18 -11 21 -11 21 1 0 8 -6 12 -14 9 -7
-3 -13 0 -13 6 0 7 8 14 18 18 9 4 37 20 60 36 24 16 54 30 67 31 13 0 21 4
19 8 -8 12 54 38 73 31 16 -6 16 -5 4 10 -16 20 -1 23 18 5 10 -11 11 -10 6 2
-3 10 6 22 27 35 28 16 31 16 19 2 -9 -12 -10 -17 -2 -17 6 0 16 12 21 26 6
14 14 22 20 19 5 -3 10 -2 10 3 0 6 12 10 28 11 15 0 38 1 52 1 l25 1 -24 10
c-16 6 -28 6 -38 -2 -7 -7 -16 -9 -19 -6 -9 8 35 29 46 22 6 -3 10 -2 10 4 0
15 131 93 147 87 9 -4 17 1 20 15 4 12 11 18 20 15 8 -3 12 -2 9 2 -2 4 21 21
52 37 31 17 59 33 62 36 9 11 53 31 47 22 -4 -5 0 -10 8 -10 8 0 13 3 12 6 -1
3 1 6 5 6 4 0 15 10 24 23 l15 22 39 -21 c22 -12 37 -26 34 -30 -2 -4 1 -11 7
-15 8 -4 9 -3 5 4 -4 7 -2 12 4 12 6 0 13 -7 16 -15 4 -8 10 -13 14 -10 5 3
11 1 15 -5 3 -5 17 -10 31 -10 l25 0 -3 -229 c-3 -215 -4 -231 -24 -258 -24
-32 -177 -126 -554 -341 -54 -31 -568 -330 -630 -366 -30 -18 -81 -48 -113
-66 -66 -37 -71 -27 49 -98 38 -23 77 -42 85 -42 8 0 89 43 178 95 90 52 165
95 167 95 2 0 53 29 114 65 61 36 112 65 114 65 2 0 143 78 371 204 207 116
303 176 329 207 58 69 56 39 56 825 0 398 3 724 6 724 3 0 13 -9 22 -20 14
-15 118 -84 280 -184 8 -4 -2 12 -21 38 -111 144 -54 436 133 680 33 44 60 83
60 88 0 12 -18 10 -26 -4 -5 -7 -3 -8 6 -3 9 6 11 4 5 -4 -5 -9 -10 -10 -18
-2 -7 7 -5 17 9 33 l19 23 -22 -18 c-21 -18 -22 -18 -87 32 -36 28 -75 51 -86
51 -18 0 -15 5 16 35 19 19 38 35 40 35 3 0 15 10 27 21 43 41 147 83 218 87
65 4 69 3 183 -58 64 -34 121 -60 126 -58 5 2 -28 23 -73 47 -45 24 -103 55
-129 68 -52 28 -117 32 -189 13 -34 -9 -44 -8 -86 15 -57 30 -120 33 -190 9
-207 -70 -421 -407 -381 -599 11 -55 40 -109 66 -125 15 -8 15 -9 1 -10 -23 0
-55 38 -78 93 -47 109 4 295 123 453 l46 62 0 111 c0 64 -4 110 -9 107 -14 -9
-21 20 -8 35 10 11 9 11 -5 0 -13 -10 -15 -18 -8 -31 5 -9 6 -21 2 -25 -14
-14 -75 -35 -102 -35 -28 0 -60 27 -60 51 0 12 2 11 10 -1 8 -13 10 -12 10 3
0 20 16 23 23 5 2 -7 2 -3 0 10 -4 26 5 28 23 5 11 -15 13 -15 14 -3 0 15 57
47 66 37 3 -3 19 8 37 24 32 30 47 36 47 20 0 -5 -9 -13 -20 -16 -11 -3 -20
-15 -20 -25 0 -23 16 -35 26 -19 4 8 3 9 -4 5 -21 -13 -13 6 12 29 24 23 25
23 26 239 0 119 -1 216 -2 215 -2 -1 -12 -6 -23 -12z m-653 -927 c-24 -22 -32
-25 -32 -10 0 6 10 15 23 20 32 13 33 12 9 -10z m68 0 c0 -5 -5 -10 -11 -10
-5 0 -7 5 -4 10 3 6 8 10 11 10 2 0 4 -4 4 -10z m510 -430 c0 -5 -2 -10 -4
-10 -3 0 -8 5 -11 10 -3 6 -1 10 4 10 6 0 11 -4 11 -10z m-1166 -538 c3 -5 -1
-9 -9 -9 -8 0 -15 4 -15 9 0 4 4 8 9 8 6 0 12 -4 15 -8z m-41 -72 c3 -11 3
-20 1 -20 -2 0 -8 9 -14 20 -6 11 -7 20 -2 20 6 0 12 -9 15 -20z m-23 -69 c0
-5 -7 -12 -16 -15 -14 -5 -15 -4 -4 9 14 17 20 19 20 6z m-130 -141 c0 -5 -5
-10 -11 -10 -5 0 -7 5 -4 10 3 6 8 10 11 10 2 0 4 -4 4 -10z"/>
<path d="M6508 12006 c-20 -15 -76 -108 -84 -143 -5 -19 -3 -24 7 -21 8 3 19
-1 24 -8 6 -7 17 -14 25 -16 8 -2 20 -9 25 -16 9 -11 22 5 59 68 27 45 45 85
40 89 -55 45 -81 58 -96 47z"/>
<path d="M7100 11976 c0 -48 -50 -194 -91 -263 -82 -138 -254 -273 -349 -273
-28 0 -39 -4 -34 -11 12 -20 116 -5 178 25 57 28 174 133 214 192 69 102 117
240 110 318 -4 51 -28 61 -28 12z"/>
<path d="M9265 11738 c-22 -11 -82 -45 -132 -75 l-93 -54 0 -139 0 -140 24 10
c14 5 33 13 43 19 10 5 53 22 96 37 42 16 77 32 77 37 0 4 5 5 10 2 18 -11 21
17 18 172 l-3 151 -40 -20z"/>
<path d="M8590 11566 c0 -2 8 -10 18 -17 15 -13 16 -12 3 4 -13 16 -21 21 -21
13z"/>
<path d="M8645 11540 c10 -11 20 -20 23 -20 3 0 -3 9 -13 20 -10 11 -20 20
-23 20 -3 0 3 -9 13 -20z"/>
<path d="M13302 11449 c-30 -17 -52 -33 -49 -35 4 -4 102 48 116 62 15 14 -22
-1 -67 -27z"/>
<path d="M8390 11420 c0 -13 18 -22 24 -11 3 5 -1 11 -9 15 -8 3 -15 1 -15 -4z"/>
<path d="M9334 11335 c3 -9 6 -21 6 -26 0 -5 5 -9 11 -9 5 0 8 4 5 9 -4 5 -2
11 4 13 6 2 1 9 -11 17 -19 11 -21 11 -15 -4z"/>
<path d="M9311 11314 c0 -11 3 -14 6 -6 3 7 2 16 -1 19 -3 4 -6 -2 -5 -13z"/>
<path d="M9282 11269 c-12 -19 -11 -19 8 -9 11 6 18 15 15 21 -8 12 -8 12 -23
-12z"/>
<path d="M2840 11204 c-174 -47 -360 -252 -435 -478 -48 -143 -44 -320 8 -398
21 -31 133 -115 142 -106 2 2 -7 26 -21 54 -144 292 193 862 511 864 66 0 69
-4 -30 48 -55 29 -110 34 -175 16z"/>
<path d="M4945 11208 c-58 -20 -176 -128 -212 -196 -14 -26 -22 -32 -38 -26
-33 12 -109 8 -135 -7 -14 -7 -27 -14 -30 -15 -20 -4 -40 -18 -40 -26 0 -6 6
-5 15 2 13 10 15 9 15 -9 0 -18 -3 -19 -26 -11 -32 13 -54 2 -30 -15 16 -12
30 -75 16 -75 -4 0 -11 -8 -14 -17 -4 -10 -4 -14 0 -10 4 4 16 0 26 -10 17
-15 18 -15 18 0 0 10 5 17 11 17 5 0 8 4 5 8 -3 5 6 15 19 22 14 7 25 17 25
21 0 12 66 47 124 65 43 13 65 15 93 8 36 -9 39 -7 61 21 45 61 147 156 187
175 23 11 55 20 71 20 27 0 26 2 -23 31 -59 34 -94 41 -138 27z m-450 -306
c-3 -3 -11 0 -18 7 -9 10 -8 11 6 5 10 -3 15 -9 12 -12z m16 -48 c-4 -35 -9
-44 -23 -44 -7 0 -7 4 -1 13 5 6 8 25 7 40 -2 18 1 27 9 24 7 -2 10 -16 8 -33z
m33 1 c-4 -8 -10 -12 -15 -9 -11 6 -2 24 11 24 5 0 7 -7 4 -15z"/>
<path d="M9040 11199 c0 -13 -9 -41 -20 -62 -11 -20 -20 -39 -20 -42 0 -5 54
24 97 52 l25 16 -29 15 c-15 8 -34 21 -40 30 -11 14 -13 13 -13 -9z"/>
<path d="M12900 11041 l0 -140 45 -32 c100 -72 165 -192 200 -370 3 -20 25
-37 102 -79 54 -30 121 -68 148 -86 28 -17 60 -36 73 -43 l22 -12 0 284 0 284
-132 76 -133 77 -3 -60 c-2 -33 -6 -60 -10 -60 -4 0 -22 9 -39 20 -32 19 -33
22 -33 84 l0 64 -115 66 c-63 36 -117 66 -120 66 -3 0 -5 -63 -5 -139z"/>
<path d="M14625 11141 c-3 -5 -2 -12 3 -15 5 -3 9 1 9 9 0 17 -3 19 -12 6z"/>
<path d="M2970 11115 c-64 -20 -175 -90 -174 -109 1 -9 -2 -13 -7 -10 -5 3
-29 -17 -53 -43 -25 -26 -40 -50 -35 -54 10 -6 18 -60 20 -132 1 -20 5 -40 10
-43 5 -3 7 -10 3 -15 -3 -6 -7 -41 -9 -77 -2 -37 -10 -87 -18 -111 -9 -24 -12
-40 -8 -35 14 16 62 104 57 104 -3 0 16 20 42 45 42 39 44 45 24 45 -58 0 -47
109 17 179 48 52 105 65 134 30 24 -29 18 -77 -16 -128 l-24 -36 38 3 c32 3
44 -1 69 -26 21 -22 30 -40 30 -64 -1 -32 -5 -36 -175 -136 l-174 -103 -3 -86
c-2 -63 0 -87 10 -91 10 -3 9 -9 -5 -24 -17 -19 -17 -20 22 -13 242 42 494
388 494 680 1 127 -41 210 -121 245 -54 23 -85 24 -148 5z m-248 -207 c-7 -7
-12 -8 -12 -2 0 14 12 26 19 19 2 -3 -1 -11 -7 -17z m26 -278 c-7 -10 -14 -17
-17 -15 -4 4 18 35 25 35 2 0 -1 -9 -8 -20z"/>
<path d="M14680 11116 c0 -2 8 -10 18 -17 15 -13 16 -12 3 4 -13 16 -21 21
-21 13z"/>
<path d="M9064 11095 c-10 -8 -14 -15 -7 -15 6 0 15 5 18 11 4 6 14 8 22 5 8
-3 11 -1 8 4 -8 14 -18 13 -41 -5z"/>
<path d="M14660 11070 c0 -5 5 -10 10 -10 6 0 10 5 10 10 0 6 -4 10 -10 10 -5
0 -10 -4 -10 -10z"/>
<path d="M14799 11041 c6 -10 7 -21 3 -25 -3 -4 2 -4 11 0 17 6 17 8 1 25 -22
24 -27 24 -15 0z"/>
<path d="M8745 11005 c-9 -25 -31 -60 -48 -77 l-32 -32 45 25 c25 14 63 36 85
48 52 30 64 41 41 41 -10 0 -30 9 -46 20 l-27 20 -18 -45z"/>
<path d="M12581 10999 c-71 -46 -73 -52 -16 -44 60 8 95 28 95 55 0 28 -26 24
-79 -11z"/>
<path d="M14740 11019 c0 -5 5 -7 10 -4 6 3 10 8 10 11 0 2 -4 4 -10 4 -5 0
-10 -5 -10 -11z"/>
<path d="M4940 11009 c0 -6 -6 -9 -13 -6 -8 3 -29 -18 -53 -54 -28 -42 -43
-57 -54 -52 -8 4 -38 8 -66 11 -178 14 -353 -262 -275 -434 10 -22 36 -55 57
-72 48 -40 178 -108 241 -127 52 -16 45 -20 102 60 26 37 141 224 141 230 0 2
18 34 40 71 22 38 40 73 40 79 -1 5 -9 -5 -19 -24 -17 -31 -19 -33 -29 -15 -7
13 -7 25 0 39 6 11 7 17 3 13 -11 -11 -34 23 -35 50 0 12 -4 22 -10 22 -5 0
-10 18 -10 40 0 22 -4 40 -10 40 -5 0 -10 11 -10 24 0 14 -4 28 -10 31 -5 3
-10 15 -10 26 0 10 -4 19 -10 19 -5 0 -10 5 -10 11 0 5 4 7 10 4 6 -3 7 1 4 9
-7 19 -14 21 -14 5z"/>
<path d="M9005 10999 c-22 -10 -34 -19 -27 -19 15 0 72 28 72 35 0 6 3 7 -45
-16z"/>
<path d="M14820 11000 c-9 -6 -10 -10 -3 -10 6 0 15 5 18 10 8 12 4 12 -15 0z"/>
<path d="M14750 10989 c0 -5 5 -7 10 -4 6 3 10 8 10 11 0 2 -4 4 -10 4 -5 0
-10 -5 -10 -11z"/>
<path d="M14760 10965 c-11 -13 -10 -14 4 -9 9 3 16 10 16 15 0 13 -6 11 -20
-6z"/>
<path d="M14729 10968 c-5 -18 -6 -38 -1 -34 7 8 12 36 6 36 -2 0 -4 -1 -5 -2z"/>
<path d="M14660 10950 c-9 -6 -10 -10 -3 -10 6 0 15 5 18 10 8 12 4 12 -15 0z"/>
<path d="M11930 10939 c-14 -5 -63 -29 -109 -53 -80 -41 -83 -44 -55 -50 109
-24 504 2 504 33 0 4 -33 23 -74 44 -68 34 -80 37 -158 36 -45 0 -94 -5 -108
-10z"/>
<path d="M14655 10917 c-14 -11 -15 -16 -5 -22 9 -6 11 -4 5 5 -6 9 -4 12 7 8
9 -4 15 0 15 8 0 17 1 17 -22 1z"/>
<path d="M4425 10889 c-4 -6 -5 -12 -2 -15 2 -3 7 2 10 11 7 17 1 20 -8 4z"/>
<path d="M12515 10881 c-90 -22 -194 -67 -295 -126 l-80 -47 53 -76 c30 -43
69 -99 88 -127 19 -27 36 -52 39 -55 3 -3 33 -45 65 -94 33 -49 77 -108 98
-132 52 -60 67 -101 67 -188 0 -259 -218 -579 -462 -677 -51 -21 -66 -21 -423
-20 -217 1 -376 -2 -384 -8 -25 -16 -19 -237 8 -336 26 -92 48 -133 105 -193
79 -83 153 -112 289 -112 400 0 922 423 1202 975 115 227 171 407 195 630 25
233 -41 441 -172 535 -92 67 -246 87 -393 51z"/>
<path d="M4457 10866 c3 -13 0 -27 -6 -30 -6 -4 -11 -13 -11 -19 0 -7 7 -3 15
7 17 22 20 52 6 60 -4 3 -6 -5 -4 -18z"/>
<path d="M14665 10806 c-27 -27 -34 -66 -11 -66 15 0 21 -42 32 -211 l7 -106
-174 -101 c-96 -56 -188 -111 -206 -122 l-31 -21 -23 32 c-18 25 -25 56 -35
152 -7 67 -10 136 -7 154 4 25 2 33 -9 33 -32 0 -67 -64 -42 -78 11 -6 18 -38
25 -118 8 -82 16 -119 33 -151 19 -34 21 -44 11 -55 -7 -7 -23 -69 -35 -137
-18 -102 -19 -126 -8 -136 18 -16 319 -187 323 -183 2 2 -3 73 -10 158 -7 85
-12 156 -11 156 8 9 480 281 506 291 46 20 270 154 270 162 0 5 -233 138 -259
149 -3 1 -66 -34 -140 -78 -74 -44 -137 -77 -141 -73 -10 12 -32 308 -25 336
9 36 -11 42 -40 13z"/>
<path d="M4446 10774 c-5 -14 -4 -15 8 -5 8 7 17 8 20 3 3 -6 -1 -15 -10 -22
-8 -7 -12 -20 -9 -28 3 -9 0 -12 -8 -9 -8 3 -20 1 -28 -4 -9 -6 -10 -9 -2 -9
7 0 10 -7 6 -16 -4 -12 1 -10 20 6 15 13 24 27 20 33 -3 5 1 13 8 18 8 4 15
17 15 29 2 25 -31 28 -40 4z"/>
<path d="M5065 10709 c-4 -6 -5 -12 -2 -15 2 -3 7 2 10 11 7 17 1 20 -8 4z"/>
<path d="M5858 10667 c-44 -58 -90 -147 -84 -163 3 -8 2 -12 -4 -9 -6 3 -10 2
-10 -4 0 -5 25 -21 55 -36 35 -16 55 -32 55 -43 1 -22 12 -8 85 111 42 68 53
93 45 105 -5 10 -10 13 -10 9 0 -4 -19 5 -42 21 -24 16 -48 32 -54 35 -7 4
-22 -7 -36 -26z"/>
<path d="M6634 10682 c-6 -4 -14 -32 -17 -62 -14 -136 -95 -307 -205 -435
-110 -127 -267 -222 -372 -226 l-25 0 25 -11 c42 -17 124 -2 204 36 220 106
422 417 417 640 -1 52 -9 70 -27 58z"/>
<path d="M4428 10642 c4 -11 1 -13 -8 -7 -9 5 -11 4 -6 -3 11 -17 23 -15 28 6
3 11 0 19 -7 19 -8 0 -11 -7 -7 -15z"/>
<path d="M8584 10621 c-90 -41 -161 -199 -115 -254 19 -24 86 -22 126 3 40 25
85 82 84 107 0 10 -3 13 -6 6 -9 -24 -18 -13 -21 28 -1 23 1 38 7 35 5 -3 7
-16 3 -28 -3 -15 -2 -19 7 -14 7 5 10 23 8 47 -2 24 0 39 7 39 6 0 3 5 -6 11
-10 5 -18 15 -18 21 0 6 7 5 18 -3 15 -13 16 -12 3 4 -17 22 -45 21 -97 -2z
m76 -16 c10 -13 9 -15 -11 -14 -13 0 -18 3 -11 6 6 2 10 9 6 14 -9 15 2 10 16
-6z m10 -29 c0 -3 -4 -8 -10 -11 -5 -3 -10 -1 -10 4 0 6 5 11 10 11 6 0 10 -2
10 -4z"/>
<path d="M13695 10620 c3 -5 11 -10 16 -10 6 0 7 5 4 10 -3 6 -11 10 -16 10
-6 0 -7 -4 -4 -10z"/>
<path d="M4418 10503 c6 -2 9 -10 6 -15 -4 -7 -2 -8 5 -4 13 9 5 26 -12 25 -9
0 -8 -2 1 -6z"/>
<path d="M4460 10426 c0 -2 7 -7 16 -10 8 -3 12 -2 9 4 -6 10 -25 14 -25 6z"/>
<path d="M13962 10390 c0 -14 2 -19 5 -12 2 6 2 18 0 25 -3 6 -5 1 -5 -13z"/>
<path d="M15836 10351 c-12 -19 6 -37 75 -76 39 -22 82 -53 95 -68 30 -36 32
-94 4 -130 -11 -14 -156 -101 -323 -194 -400 -222 -379 -212 -459 -213 -61 0
-75 4 -153 45 -47 25 -91 43 -96 39 -6 -3 -9 -18 -6 -32 3 -17 -1 -31 -11 -39
-14 -11 -13 -12 9 -2 23 9 36 6 100 -28 68 -35 81 -38 154 -38 80 0 80 0 200
66 332 181 582 324 604 343 51 46 66 136 32 192 -22 36 -61 67 -142 112 -60
34 -74 38 -83 23z"/>
<path d="M13660 10336 c0 -8 4 -17 9 -20 5 -4 7 3 4 14 -6 23 -13 26 -13 6z"/>
<path d="M13617 10309 c4 -13 8 -18 11 -10 2 7 -1 18 -6 23 -8 8 -9 4 -5 -13z"/>
<path d="M13960 10290 c0 -5 5 -10 10 -10 6 0 10 5 10 10 0 6 -4 10 -10 10 -5
0 -10 -4 -10 -10z"/>
<path d="M15091 10278 c-23 -24 -27 -54 -9 -60 13 -5 26 -117 27 -239 1 -65
-3 -85 -27 -133 -16 -31 -26 -56 -22 -56 5 0 21 13 38 28 50 47 56 91 42 295
-7 98 -17 180 -21 183 -4 2 -17 -6 -28 -18z"/>
<path d="M13220 10154 c0 -85 -2 -95 -15 -84 -20 17 -29 7 -16 -18 9 -17 199
-132 218 -132 3 0 3 51 -1 113 -7 127 -1 117 -116 180 l-70 38 0 -97z"/>
<path d="M13646 10215 c14 -11 15 -14 4 -15 -13 0 -13 -1 0 -10 8 -5 20 -10
25 -10 6 0 3 5 -5 10 -8 5 -11 10 -6 10 12 0 -14 30 -27 30 -6 0 -2 -7 9 -15z"/>
<path d="M2695 10210 c3 -5 11 -10 16 -10 6 0 7 5 4 10 -3 6 -11 10 -16 10 -6
0 -7 -4 -4 -10z"/>
<path d="M13981 10174 c0 -11 3 -14 6 -6 3 7 2 16 -1 19 -3 4 -6 -2 -5 -13z"/>
<path d="M10084 10139 c16 -58 28 -129 23 -141 -2 -8 -55 -40 -116 -72 l-111
-57 0 -110 c0 -60 3 -109 7 -109 3 0 66 32 140 71 93 49 135 66 138 57 2 -7
13 -58 25 -113 11 -55 32 -147 46 -205 14 -58 27 -116 29 -130 2 -14 8 -37 14
-51 5 -15 8 -29 6 -31 -2 -2 3 -26 11 -53 8 -28 17 -65 20 -84 3 -19 9 -40 15
-47 6 -7 7 -19 3 -26 -5 -10 -4 -11 7 0 10 9 10 15 1 24 -7 7 -12 21 -12 33 1
20 1 20 15 1 8 -11 15 -14 15 -8 0 7 5 12 11 12 6 0 9 -9 6 -20 -3 -11 -1 -18
4 -14 5 3 9 12 9 20 0 19 44 18 64 -2 9 -8 21 -12 26 -9 17 11 60 -4 60 -20 0
-8 5 -15 10 -15 6 0 10 5 10 11 0 11 33 9 123 -7 28 -5 37 -3 38 7 0 8 4 5 8
-6 5 -11 4 -25 -1 -32 -8 -9 -6 -13 6 -13 15 0 22 19 16 45 -1 5 2 7 6 3 4 -4
14 -2 23 5 14 10 14 10 3 -5 -9 -11 -10 -17 -2 -20 11 -3 55 -154 81 -273 6
-27 25 -79 43 -115 27 -56 62 -96 259 -290 215 -213 227 -227 227 -262 0 -39
-21 -68 -49 -68 -9 0 -84 39 -167 86 -82 48 -266 154 -409 237 -365 210 -330
184 -343 259 -28 153 -35 178 -44 178 -6 0 -52 -23 -102 -52 -399 -227 -411
-235 -414 -260 -2 -14 3 -30 10 -35 15 -12 188 -105 683 -363 514 -268 555
-289 560 -290 3 0 28 -11 55 -25 40 -20 54 -23 68 -15 16 11 16 11 0 6 -10 -3
-24 -3 -32 0 -17 7 -18 54 0 54 15 0 28 35 18 51 -4 8 1 9 17 4 62 -20 90 -10
249 89 151 94 195 126 158 113 -10 -4 -18 -2 -18 3 0 6 6 10 14 10 8 0 18 9
21 20 3 11 11 20 17 20 5 0 8 7 5 15 -4 8 -2 17 3 20 6 4 10 17 10 31 0 13 4
24 10 24 5 0 7 -7 4 -15 -4 -8 -2 -15 4 -15 5 0 12 9 15 20 3 11 1 20 -4 20
-5 0 -9 8 -9 18 -1 16 -1 16 -11 0 -5 -10 -14 -18 -20 -18 -5 0 -4 8 3 19 6
10 22 19 36 19 18 0 21 -3 11 -10 -11 -8 -11 -9 1 -5 10 2 15 16 14 40 -1 21
4 37 10 37 6 0 -4 8 -21 16 -18 9 -44 27 -58 40 -14 13 -29 24 -33 25 -26 5
-52 22 -90 57 -37 34 -40 41 -25 47 10 5 24 7 31 6 17 -3 15 9 -5 26 -16 12
-14 13 17 9 19 -3 28 -3 20 0 -8 4 -22 12 -30 19 -8 7 -79 47 -158 90 -152 82
-173 101 -216 195 -19 42 -100 358 -131 510 -2 8 -17 76 -35 150 -18 74 -34
145 -36 157 -8 44 -25 77 -61 117 -40 46 -169 163 -194 176 -10 6 -38 -5 -90
-35 -40 -24 -79 -44 -85 -45 -6 0 -103 57 -215 126 -112 70 -219 136 -238 147
l-34 21 7 -25z m1656 -1834 c0 -8 -2 -15 -4 -15 -2 0 -6 7 -10 15 -3 8 -1 15
4 15 6 0 10 -7 10 -15z m-17 -25 c3 -11 2 -20 -3 -20 -4 0 -10 9 -13 20 -3 11
-2 20 3 20 4 0 10 -9 13 -20z m-36 -97 c2 -6 -4 -13 -13 -17 -15 -6 -15 -4 -3
10 12 15 11 16 -11 10 -19 -6 -21 -5 -10 3 17 12 32 10 37 -6z m-67 -137 c0
-3 -4 -8 -10 -11 -5 -3 -10 -1 -10 4 0 6 5 11 10 11 6 0 10 -2 10 -4z"/>
<path d="M13730 10149 c0 -5 5 -7 10 -4 6 3 10 8 10 11 0 2 -4 4 -10 4 -5 0
-10 -5 -10 -11z"/>
<path d="M13795 10140 c-3 -6 1 -7 9 -4 18 7 21 14 7 14 -6 0 -13 -4 -16 -10z"/>
<path d="M13610 10136 c0 -2 7 -7 16 -10 8 -3 12 -2 9 4 -6 10 -25 14 -25 6z"/>
<path d="M13430 10016 l0 -116 43 -22 c23 -13 47 -23 53 -23 6 0 20 -7 30 -15
13 -10 12 -6 -4 11 -12 14 -20 28 -17 31 3 3 8 32 11 64 4 33 10 64 15 70 5 6
5 15 1 19 -4 5 2 5 13 1 37 -13 -5 18 -77 58 l-68 37 0 -115z"/>
<path d="M13657 10109 c7 -7 15 -10 18 -7 3 3 -2 9 -12 12 -14 6 -15 5 -6 -5z"/>
<path d="M13127 10096 c-6 -14 10 -36 25 -36 4 0 8 9 8 19 0 22 -26 35 -33 17z"/>
<path d="M13618 10098 c5 -5 16 -8 23 -6 8 3 3 7 -10 11 -17 4 -21 3 -13 -5z"/>
<path d="M13976 10074 c-11 -8 -16 -14 -10 -14 13 0 39 18 34 24 -3 2 -14 -2
-24 -10z"/>
<path d="M13850 10076 c0 -2 7 -7 16 -10 8 -3 12 -2 9 4 -6 10 -25 14 -25 6z"/>
<path d="M13899 10071 c9 -6 10 -10 1 -13 -6 -2 8 -14 32 -26 24 -13 34 -16
24 -8 -11 9 -24 16 -30 16 -5 0 -6 3 -3 7 9 8 -12 33 -27 33 -6 0 -5 -4 3 -9z"/>
<path d="M13730 10059 c0 -5 9 -9 20 -9 11 0 20 2 20 4 0 2 -9 6 -20 9 -11 3
-20 1 -20 -4z"/>
<path d="M14670 10040 c-21 -21 -27 -60 -10 -60 5 0 12 -27 16 -60 6 -51 10
-60 26 -60 16 0 19 5 14 23 -3 12 -6 57 -6 100 0 81 -7 90 -40 57z"/>
<path d="M13116 10038 c-2 -7 -21 -66 -42 -130 -20 -65 -35 -119 -33 -121 2
-2 30 -18 62 -36 l57 -32 0 155 c0 145 -1 156 -20 166 -15 8 -21 8 -24 -2z"/>
<path d="M13739 10029 c-11 -7 -12 -10 -1 -21 11 -11 13 -10 10 2 -2 10 3 14
15 12 20 -3 23 4 4 11 -8 3 -20 1 -28 -4z"/>
<path d="M13192 9854 l3 -156 100 -59 c55 -32 103 -58 108 -59 4 0 7 69 7 153
l0 152 -57 32 c-32 18 -82 46 -111 63 l-53 31 3 -157z"/>
<path d="M13880 9980 c0 -5 10 -12 23 -16 37 -11 49 -25 36 -41 -10 -11 -9
-12 5 -7 27 10 18 29 -24 52 -22 11 -40 17 -40 12z"/>
<path d="M8447 9953 c-4 -3 -7 -11 -7 -17 0 -6 5 -5 12 2 6 6 9 14 7 17 -3 3
-9 2 -12 -2z"/>
<path d="M13870 9950 c0 -5 5 -10 10 -10 6 0 10 5 10 10 0 6 -4 10 -10 10 -5
0 -10 -4 -10 -10z"/>
<path d="M13732 9833 c-2 -87 -1 -93 21 -103 19 -10 20 -10 5 3 -13 10 -18 34
-21 103 l-3 89 -2 -92z"/>
<path d="M14002 9895 c0 -16 2 -22 5 -12 2 9 2 23 0 30 -3 6 -5 -1 -5 -18z"/>
<path d="M3802 9878 c-10 -18 -43 -75 -72 -127 l-53 -94 -49 52 c-26 28 -48
56 -48 61 0 4 -9 28 -19 53 l-19 45 -90 -24 c-384 -99 -651 -310 -703 -554
-22 -102 6 -241 67 -334 27 -41 182 -196 196 -196 4 0 27 -14 52 -31 103 -69
314 -150 476 -182 182 -37 223 -41 415 -41 202 -1 271 6 455 46 312 68 591
232 704 415 128 208 69 467 -146 639 -242 193 -609 304 -1008 304 l-138 0 -20
-32z m799 -399 c11 -109 10 -356 -2 -382 -13 -30 -353 -229 -383 -225 -20 3
-21 9 -24 219 -2 195 -1 218 15 237 10 12 83 58 163 103 80 45 159 90 175 100
17 10 35 16 40 15 6 -1 13 -31 16 -67z m-885 -110 c25 -28 22 -107 -6 -183
-23 -59 -114 -224 -165 -296 -25 -35 -38 -45 -58 -43 -36 2 -147 58 -184 92
-18 16 -34 27 -36 25 -2 -2 -16 9 -32 26 -42 44 -46 113 -10 185 31 61 47 78
77 82 18 3 18 2 3 -13 -9 -9 -13 -19 -9 -23 4 -3 9 0 11 7 4 10 8 9 17 -3 11
-15 13 -16 25 -1 12 14 11 16 -5 10 -15 -5 -16 -4 -4 4 8 6 18 9 22 6 4 -3 28
2 54 11 26 8 55 13 66 9 14 -4 29 6 61 42 73 83 135 105 173 63z"/>
<path d="M4370 9386 c0 -2 7 -7 16 -10 8 -3 12 -2 9 4 -6 10 -25 14 -25 6z"/>
<path d="M4347 9364 c-4 -4 -21 -7 -37 -6 -40 1 -96 -32 -104 -61 -8 -29 5
-417 14 -417 16 0 346 194 363 212 13 16 17 39 17 108 0 124 -6 148 -36 144
-13 -1 -26 2 -30 7 -3 5 -10 9 -15 9 -6 0 2 -10 16 -22 l26 -23 -83 -127 c-46
-70 -87 -128 -91 -128 -5 0 -40 24 -78 53 -67 50 -69 53 -63 87 3 19 8 38 11
43 2 4 26 -10 51 -31 26 -21 53 -42 59 -46 13 -7 49 44 105 144 25 45 25 46 5
48 -12 0 -27 -4 -34 -10 -9 -7 -13 -7 -13 1 0 6 -11 8 -31 4 -19 -4 -34 -1
-38 6 -4 6 -10 8 -14 5z"/>
<path d="M3560 9302 c0 -6 6 -13 13 -16 6 -3 3 -4 -8 -1 -15 4 -25 -3 -38 -25
-16 -26 -21 -28 -43 -20 -70 27 -172 -54 -194 -153 -15 -66 -9 -97 28 -137 32
-35 134 -90 168 -90 19 0 34 15 68 68 58 89 77 128 68 137 -4 5 -1 5 6 1 11
-6 17 5 13 27 0 4 5 7 12 7 6 0 4 5 -5 11 -10 5 -18 19 -18 29 0 10 -5 22 -10
25 -8 5 -7 11 1 21 9 11 8 14 -5 14 -15 0 -21 17 -17 49 2 7 -2 10 -8 6 -14
-8 -14 17 -1 33 6 6 7 10 4 7 -4 -3 -13 0 -21 6 -8 8 -13 8 -13 1z"/>
<path d="M3270 9231 c-7 -13 -7 -22 0 -26 5 -3 10 -5 11 -3 11 48 7 61 -11 29z"/>
<path d="M3301 9206 c-15 -18 -23 -59 -10 -51 5 4 9 16 9 28 0 18 2 19 10 7 8
-12 10 -11 10 8 0 26 -3 27 -19 8z"/>
<path d="M13430 9716 c0 -148 1 -156 21 -167 17 -8 23 -8 29 1 5 7 14 9 21 5
11 -6 11 -5 2 5 -10 11 -9 16 5 27 16 12 16 13 -2 6 -16 -5 -18 -3 -13 18 3
13 9 48 12 77 3 29 10 62 14 74 17 47 2 66 -81 106 -5 2 -8 -66 -8 -152z"/>
<path d="M7858 9833 c12 -2 32 -2 45 0 12 2 2 4 -23 4 -25 0 -35 -2 -22 -4z"/>
<path d="M14002 9820 c0 -14 2 -19 5 -12 2 6 2 18 0 25 -3 6 -5 1 -5 -13z"/>
<path d="M14167 9808 c-18 -78 -48 -280 -44 -292 6 -14 86 -61 92 -54 1 2 5
78 9 169 l6 166 -24 17 c-32 20 -33 20 -39 -6z"/>
<path d="M14707 9823 c-14 -14 -6 -61 16 -93 12 -18 39 -42 60 -53 33 -17 41
-18 69 -6 l31 13 -43 12 c-51 15 -87 47 -110 96 -9 21 -20 35 -23 31z"/>
<path d="M13655 9799 c-4 -6 -5 -12 -2 -15 2 -3 7 2 10 11 7 17 1 20 -8 4z"/>
<path d="M8340 9790 c0 -5 5 -10 10 -10 6 0 10 5 10 10 0 6 -4 10 -10 10 -5 0
-10 -4 -10 -10z"/>
<path d="M14007 9771 c-4 -17 -3 -21 5 -13 5 5 8 16 6 23 -3 8 -7 3 -11 -10z"/>
<path d="M14250 9723 c0 -32 -3 -108 -6 -169 l-7 -111 92 -53 c51 -28 95 -50
98 -46 3 3 9 77 14 163 7 148 6 159 -12 175 -19 16 -163 98 -174 98 -3 0 -5
-26 -5 -57z"/>
<path d="M12980 9674 c-22 -48 -40 -90 -40 -93 0 -6 55 -40 178 -109 l43 -24
-3 122 -3 123 -60 33 c-33 19 -63 34 -67 34 -4 0 -25 -39 -48 -86z"/>
<path d="M13615 9741 c-3 -5 -1 -12 5 -16 5 -3 10 1 10 9 0 18 -6 21 -15 7z"/>
<path d="M13687 9699 c4 -13 8 -18 11 -10 2 7 -1 18 -6 23 -8 8 -9 4 -5 -13z"/>
<path d="M14006 9689 c-8 -42 0 -50 9 -9 4 17 5 34 2 36 -2 3 -7 -10 -11 -27z"/>
<path d="M9460 9706 c0 -2 7 -7 16 -10 8 -3 12 -2 9 4 -6 10 -25 14 -25 6z"/>
<path d="M13800 9700 c8 -5 20 -10 25 -10 6 0 3 5 -5 10 -8 5 -19 10 -25 10
-5 0 -3 -5 5 -10z"/>
<path d="M13628 9693 c7 -3 16 -2 19 1 4 3 -2 6 -13 5 -11 0 -14 -3 -6 -6z"/>
<path d="M13925 9670 c-3 -5 -1 -10 4 -10 6 0 11 5 11 10 0 6 -2 10 -4 10 -3
0 -8 -4 -11 -10z"/>
<path d="M9546 9658 c5 -8 2 -9 -12 -4 -10 4 -15 3 -10 -1 4 -4 18 -8 31 -8
19 -1 22 2 13 12 -13 16 -32 17 -22 1z"/>
<path d="M13190 9553 l0 -119 105 -67 c57 -37 107 -67 110 -67 3 0 5 55 5 123
l0 122 -63 36 c-34 20 -83 48 -109 63 l-48 28 0 -119z"/>
<path d="M13860 9666 c0 -2 7 -7 16 -10 8 -3 12 -2 9 4 -6 10 -25 14 -25 6z"/>
<path d="M13785 9650 c3 -5 -1 -10 -9 -10 -9 0 -16 -4 -16 -10 0 -6 10 -5 25
2 23 10 26 28 4 28 -6 0 -7 -4 -4 -10z"/>
<path d="M14466 9568 c-3 -50 -6 -128 -6 -172 l0 -81 41 -23 c22 -13 43 -21
46 -18 5 4 -13 270 -23 332 -3 20 -13 35 -28 42 -23 10 -23 10 -30 -80z"/>
<path d="M13915 9640 c9 -15 45 -32 45 -22 0 5 -12 14 -26 20 -14 7 -23 8 -19
2z"/>
<path d="M9270 9620 c-9 -6 -10 -10 -3 -10 6 0 15 5 18 10 8 12 4 12 -15 0z"/>
<path d="M9526 9618 c3 -4 11 -5 19 -1 21 7 19 12 -4 10 -11 0 -18 -5 -15 -9z"/>
<path d="M9449 9598 c-9 -30 -6 -37 12 -27 11 5 17 14 14 20 -6 8 -24 13 -26
7z"/>
<path d="M9367 9569 c7 -7 15 -10 18 -7 3 3 -2 9 -12 12 -14 6 -15 5 -6 -5z"/>
<path d="M9164 9554 c-18 -14 -18 -15 4 -4 12 6 22 13 22 15 0 8 -5 6 -26 -11z"/>
<path d="M13926 9548 c10 -14 21 -24 23 -22 3 3 -6 15 -18 27 l-24 22 19 -27z"/>
<path d="M13950 9561 c0 -6 4 -13 10 -16 6 -3 7 1 4 9 -7 18 -14 21 -14 7z"/>
<path d="M9405 9550 c4 -6 11 -8 16 -5 14 9 11 15 -7 15 -8 0 -12 -5 -9 -10z"/>
<path d="M13692 9540 c0 -14 2 -19 5 -12 2 6 2 18 0 25 -3 6 -5 1 -5 -13z"/>
<path d="M9365 9541 c-3 -5 0 -13 6 -17 8 -5 9 -3 4 6 -6 10 -4 12 9 7 10 -4
15 -3 11 3 -8 13 -22 13 -30 1z"/>
<path d="M13430 9411 l0 -120 29 -20 c16 -12 31 -21 34 -21 2 0 31 -16 63 -35
32 -19 61 -35 66 -35 4 0 8 27 8 59 l0 59 -47 29 c-27 16 -65 37 -86 48 -34
18 -37 23 -35 57 2 34 4 37 25 32 13 -4 23 -2 23 5 0 6 -7 8 -17 4 -12 -5 -14
-3 -8 7 5 9 4 11 -3 6 -7 -4 -12 -1 -12 8 0 8 -9 20 -20 26 -19 10 -20 8 -20
-109z"/>
<path d="M9294 9504 c-18 -14 -18 -15 4 -4 12 6 22 13 22 15 0 8 -5 6 -26 -11z"/>
<path d="M14031 9504 c0 -11 3 -14 6 -6 3 7 2 16 -1 19 -3 4 -6 -2 -5 -13z"/>
<path d="M9080 9499 c0 -5 5 -7 10 -4 6 3 10 8 10 11 0 2 -4 4 -10 4 -5 0 -10
-5 -10 -11z"/>
<path d="M13565 9500 c-3 -5 -2 -10 4 -10 5 0 13 5 16 10 3 6 2 10 -4 10 -5 0
-13 -4 -16 -10z"/>
<path d="M13940 9495 c0 -8 5 -15 10 -15 6 0 10 7 10 15 0 8 -4 15 -10 15 -5
0 -10 -7 -10 -15z"/>
<path d="M9238 9469 c10 -9 21 -14 26 -11 4 2 3 8 -4 12 -9 6 -9 9 1 13 8 2 2
4 -13 3 -24 -1 -25 -2 -10 -17z"/>
<path d="M13590 9486 c0 -2 11 -11 25 -20 14 -9 25 -13 25 -8 0 5 -11 14 -25
20 -14 6 -25 10 -25 8z"/>
<path d="M13666 9482 c-2 -4 -1 -14 4 -22 7 -11 9 -9 7 8 -1 24 -3 26 -11 14z"/>
<path d="M14101 9428 c-6 -29 -15 -78 -20 -108 -5 -30 -14 -66 -19 -79 l-9
-24 -21 21 c-17 17 -22 18 -22 7 0 -8 5 -15 10 -15 6 0 19 -9 29 -19 10 -10
48 -35 84 -55 l65 -36 5 32 c2 18 5 88 6 155 l2 122 -44 25 c-24 14 -46 26
-50 26 -3 0 -10 -24 -16 -52z"/>
<path d="M9210 9436 c7 -7 13 -7 20 0 6 6 3 10 -10 10 -13 0 -16 -4 -10 -10z"/>
<path d="M14021 9434 c0 -11 3 -14 6 -6 3 7 2 16 -1 19 -3 4 -6 -2 -5 -13z"/>
<path d="M9155 9428 c8 -19 30 -24 40 -9 3 5 0 13 -6 17 -8 4 -9 3 -5 -4 10
-16 -7 -15 -23 1 -10 10 -11 9 -6 -5z"/>
<path d="M13793 9430 c-13 -5 -23 -11 -23 -14 0 -7 40 6 46 15 6 10 6 10 -23
-1z"/>
<path d="M9120 9416 c0 -3 9 -10 20 -16 11 -6 20 -8 20 -6 0 3 -9 10 -20 16
-11 6 -20 8 -20 6z"/>
<path d="M13736 9407 c3 -10 9 -15 12 -12 3 3 0 11 -7 18 -10 9 -11 8 -5 -6z"/>
<path d="M14236 9373 c-3 -21 -6 -91 -6 -155 l0 -117 93 -55 92 -55 6 87 c4
48 7 119 8 157 1 79 15 63 -121 139 l-65 36 -7 -37z"/>
<path d="M8927 9376 c-4 -10 1 -12 14 -9 23 6 24 9 5 16 -8 3 -17 0 -19 -7z"/>
<path d="M13781 9371 c13 -11 28 -16 34 -13 5 4 2 8 -7 10 -10 2 -18 8 -18 13
0 5 -7 9 -16 9 -12 0 -11 -5 7 -19z"/>
<path d="M9090 9369 c0 -5 5 -7 10 -4 6 3 10 8 10 11 0 2 -4 4 -10 4 -5 0 -10
-5 -10 -11z"/>
<path d="M9045 9351 c-3 -5 0 -13 6 -17 7 -4 9 -3 5 4 -3 5 0 13 6 15 9 4 10
6 1 6 -6 1 -14 -3 -18 -8z"/>
<path d="M13826 9352 c-3 -5 1 -9 9 -9 8 0 12 4 9 9 -3 4 -7 8 -9 8 -2 0 -6
-4 -9 -8z"/>
<path d="M8969 9348 c-1 -2 -2 -17 -3 -34 -1 -22 2 -30 11 -27 7 3 10 10 6 17
-11 16 -10 30 2 38 6 5 6 8 -2 8 -7 0 -13 -1 -14 -2z"/>
<path d="M9009 9341 c11 -7 11 -9 0 -13 -10 -3 -10 -6 -1 -12 7 -4 12 -2 12 4
0 6 5 8 13 4 8 -5 8 -2 -2 9 -7 9 -19 17 -25 17 -6 0 -5 -4 3 -9z"/>
<path d="M13740 9333 c8 -3 19 -11 23 -17 6 -7 7 -6 4 4 -2 8 -12 16 -23 17
-13 2 -15 1 -4 -4z"/>
<path d="M13860 9330 c0 -5 5 -10 11 -10 5 0 7 5 4 10 -3 6 -8 10 -11 10 -2 0
-4 -4 -4 -10z"/>
<path d="M14050 9293 c-3 -23 -2 -39 3 -34 5 5 7 24 5 42 -3 33 -4 33 -8 -8z"/>
<path d="M8715 9301 c-3 -5 0 -13 6 -17 7 -4 9 -3 5 4 -3 5 0 13 6 15 9 4 10
6 1 6 -6 1 -14 -3 -18 -8z"/>
<path d="M13890 9306 c0 -2 7 -7 16 -10 8 -3 12 -2 9 4 -6 10 -25 14 -25 6z"/>
<path d="M13667 9279 c7 -7 15 -10 18 -7 3 3 -2 9 -12 12 -14 6 -15 5 -6 -5z"/>
<path d="M14457 9282 c-3 -4 -6 -74 -8 -156 l-4 -150 65 -38 c79 -45 75 -54
57 151 l-12 145 -47 27 c-26 16 -49 25 -51 21z"/>
<path d="M15446 9282 c-2 -4 -10 -38 -16 -75 -12 -65 -12 -66 -34 -52 -19 13
-25 13 -44 -1 l-22 -15 28 -25 27 -25 -40 21 c-55 28 -63 16 -67 -102 -2 -54
-6 -98 -10 -98 -11 0 -10 -38 1 -45 5 -3 21 0 35 6 20 9 32 9 51 1 22 -10 25
-9 25 7 0 22 35 69 45 59 4 -4 3 -27 -3 -52 l-10 -46 77 -43 c42 -24 184 -106
316 -182 132 -76 366 -210 520 -298 154 -88 295 -168 313 -179 l33 -21 -43
-24 c-43 -25 -391 -207 -653 -343 -77 -40 -162 -85 -190 -100 -27 -15 -113
-60 -190 -100 -143 -74 -409 -214 -750 -393 -104 -55 -343 -179 -530 -277
-187 -98 -425 -222 -530 -277 -378 -199 -971 -508 -1275 -666 -85 -44 -245
-128 -355 -187 -110 -59 -261 -139 -335 -177 -74 -39 -227 -119 -340 -178
-113 -59 -299 -157 -415 -218 -115 -60 -295 -155 -400 -210 -104 -54 -251
-131 -325 -169 -74 -39 -171 -90 -215 -113 -44 -24 -136 -72 -205 -108 -69
-35 -210 -110 -315 -164 -499 -262 -923 -485 -1155 -605 -149 -78 -458 -240
-735 -386 -476 -250 -583 -302 -623 -302 -55 0 -89 14 -221 90 -64 37 -138 79
-166 94 -62 35 -341 196 -495 286 -63 37 -151 87 -195 112 -44 24 -204 116
-355 203 -151 87 -294 168 -317 181 -23 13 -93 54 -155 90 -62 37 -162 94
-223 128 -60 35 -218 125 -350 201 -503 289 -846 487 -940 540 -62 35 -366
209 -510 293 -71 41 -249 144 -395 227 -304 174 -310 178 -310 187 0 6 105 63
385 208 61 32 200 105 310 162 552 290 646 338 655 338 6 0 10 -17 10 -37 0
-58 35 -208 69 -302 56 -154 140 -285 265 -417 l74 -77 68 38 c38 21 78 44 89
52 19 13 19 13 0 13 -17 0 -17 2 -5 10 10 6 11 10 3 10 -7 0 -13 12 -14 28 0
15 -4 36 -8 47 -5 11 -4 25 1 33 7 8 7 12 -1 12 -6 0 -11 5 -11 11 0 6 7 8 18
4 13 -5 14 -4 5 6 -10 10 -16 9 -31 -4 -16 -15 -18 -15 -18 3 0 10 4 17 7 14
4 -2 11 1 14 7 4 6 -6 25 -23 42 -33 36 -89 122 -127 196 -49 98 -93 299 -94
432 0 42 -28 24 309 199 140 73 298 155 350 183 313 164 531 277 538 277 4 0
35 -37 69 -82 125 -170 186 -232 275 -283 45 -27 94 -55 108 -64 14 -9 -5 20
-45 70 -157 194 -271 376 -316 504 -33 94 -38 294 -10 405 80 318 348 607 582
629 l70 6 -107 59 c-89 50 -117 61 -166 64 -221 16 -494 -253 -600 -591 -20
-62 -23 -93 -22 -222 0 -144 1 -154 32 -234 18 -47 31 -85 29 -86 -4 -3 -208
-111 -332 -175 -66 -34 -156 -82 -200 -105 -44 -23 -138 -73 -210 -110 -71
-37 -181 -94 -242 -127 -126 -67 -118 -69 -113 25 1 25 -5 46 -17 60 -10 11
-13 17 -6 14 6 -4 15 -3 18 3 4 6 34 23 68 39 119 54 150 104 155 251 l3 105
-20 -32 c-54 -86 -178 -135 -341 -135 -157 0 -273 43 -325 122 -11 16 -22 30
-25 30 -3 0 -4 -43 -3 -96 2 -82 6 -102 27 -138 29 -50 76 -88 141 -116 l46
-20 -1 -159 -2 -160 -156 -82 c-161 -84 -369 -193 -737 -386 -115 -61 -255
-134 -310 -163 -55 -29 -159 -83 -232 -122 -73 -38 -141 -80 -152 -94 -48 -61
-34 -155 29 -205 19 -15 233 -141 475 -279 242 -139 670 -384 950 -545 281
-161 602 -345 715 -410 113 -64 210 -121 215 -125 6 -4 36 -22 69 -40 53 -29
528 -301 750 -429 49 -28 91 -51 93 -51 2 0 22 -11 44 -26 22 -14 55 -33 72
-43 86 -49 865 -495 952 -546 168 -98 318 -181 355 -196 23 -9 72 -14 140 -14
l105 0 175 89 c96 49 180 92 185 96 6 4 80 43 165 88 147 75 307 159 788 411
114 59 266 139 337 176 72 37 157 82 190 100 33 18 121 64 195 103 74 38 227
118 340 177 113 59 309 161 435 227 127 66 275 144 330 173 55 29 201 106 325
170 124 65 313 164 420 220 107 56 254 133 325 170 72 37 218 114 325 170 107
56 296 155 420 220 124 64 277 144 340 178 118 61 352 184 750 392 380 199
438 229 650 340 113 59 266 139 340 177 74 39 167 87 205 108 39 21 126 67
195 103 69 35 220 114 335 174 116 61 264 138 330 173 66 34 165 86 220 115
55 29 152 80 215 113 63 33 210 109 325 169 116 61 269 141 340 178 72 37 193
101 270 141 77 41 164 86 194 101 64 33 91 72 91 130 0 33 -7 50 -27 73 -23
24 -209 136 -508 304 -22 13 -132 76 -245 141 -113 65 -218 126 -235 135 -16
9 -130 74 -252 145 -255 146 -237 121 -208 274 9 45 13 86 10 91 -7 12 -32 13
-39 2z m-11112 -3350 c3 -5 -1 -9 -9 -9 -8 0 -12 4 -9 9 3 4 7 8 9 8 2 0 6 -4
9 -8z"/>
<path d="M8666 9254 c-11 -8 -16 -14 -10 -14 13 0 39 18 34 24 -3 2 -14 -2
-24 -10z"/>
<path d="M13760 9259 c0 -5 5 -7 10 -4 6 3 10 8 10 11 0 2 -4 4 -10 4 -5 0
-10 -5 -10 -11z"/>
<path d="M13882 9254 c10 -10 20 -15 24 -12 3 4 -5 12 -18 18 -22 12 -22 12
-6 -6z"/>
<path d="M8852 9244 c4 -3 -3 -15 -15 -26 -22 -19 -22 -19 8 -2 17 10 31 19
33 20 2 1 -5 5 -15 8 -9 4 -14 4 -11 0z"/>
<path d="M13916 9232 c-3 -4 4 -9 15 -9 23 -2 25 3 4 10 -8 4 -16 3 -19 -1z"/>
<path d="M13868 9213 c7 -3 16 -2 19 1 4 3 -2 6 -13 5 -11 0 -14 -3 -6 -6z"/>
<path d="M13845 9200 c5 -8 10 -18 10 -22 0 -3 4 -10 9 -15 6 -5 6 -2 1 6 -6
11 -4 13 9 8 10 -4 20 -7 22 -7 2 0 4 -5 4 -11 0 -5 -6 -7 -12 -3 -7 4 -9 3
-5 -1 16 -18 32 -12 32 11 0 16 -5 22 -13 19 -7 -3 -25 3 -40 13 -20 13 -24
14 -17 2z"/>
<path d="M13047 9182 c-10 -10 -17 -22 -17 -27 0 -4 9 2 20 15 11 13 20 25 20
27 0 7 -8 2 -23 -15z"/>
<path d="M8698 9183 c7 -3 16 -2 19 1 4 3 -2 6 -13 5 -11 0 -14 -3 -6 -6z"/>
<path d="M8750 9186 c0 -2 7 -7 16 -10 8 -3 12 -2 9 4 -6 10 -25 14 -25 6z"/>
<path d="M14037 9169 c8 -8 9 -19 2 -36 -5 -14 -7 -28 -5 -32 3 -4 0 -13 -5
-21 -8 -13 -10 -13 -19 0 -9 13 -10 13 -11 0 0 -8 -2 -27 -4 -42 -5 -38 9 -43
33 -14 l19 25 37 -25 c40 -28 40 -27 25 -56 -16 -29 -4 -33 30 -9 18 13 32 17
36 11 14 -23 25 4 25 60 l0 59 -67 39 c-77 44 -115 61 -96 41z"/>
<path d="M14000 9141 c0 -10 19 -25 25 -20 1 2 -3 10 -11 17 -8 7 -14 8 -14 3z"/>
<path d="M12946 9125 c-11 -8 -15 -15 -9 -15 6 0 16 7 23 15 16 19 11 19 -14
0z"/>
<path d="M13900 9112 c0 -19 49 -91 63 -92 4 0 7 18 7 40 0 34 -4 42 -30 55
-37 19 -40 19 -40 -3z"/>
<path d="M8601 9100 c10 -7 8 -11 -10 -18 -14 -5 -20 -11 -15 -15 6 -3 23 4
38 16 l27 22 -27 2 c-19 1 -23 -2 -13 -7z"/>
<path d="M12878 9082 c-19 -11 -28 -25 -28 -42 0 -19 2 -22 9 -10 6 8 8 18 5
22 -3 4 10 17 28 28 18 11 29 20 23 20 -5 0 -22 -8 -37 -18z"/>
<path d="M15181 9057 c-30 -18 -56 -36 -58 -42 -3 -13 115 -77 128 -70 15 10
11 145 -3 144 -7 0 -37 -15 -67 -32z"/>
<path d="M14220 9006 l0 -64 91 -52 c50 -28 92 -50 94 -48 2 2 5 30 7 62 l3
60 -90 53 c-49 29 -93 53 -97 53 -5 0 -8 -29 -8 -64z"/>
<path d="M8448 9027 c18 -11 20 -15 10 -27 -11 -12 -10 -12 5 0 18 13 18 15 1
27 -10 7 -23 13 -28 13 -6 -1 -1 -6 12 -13z"/>
<path d="M12766 9011 c-3 -5 1 -17 10 -25 21 -21 30 -21 13 1 -8 9 -12 18 -11
20 2 3 1 7 -1 9 -3 3 -8 1 -11 -5z"/>
<path d="M8408 9003 c10 -4 10 -8 0 -21 -12 -15 -11 -16 4 -3 19 14 15 32 -5
30 -8 0 -8 -2 1 -6z"/>
<path d="M12685 8962 c-88 -53 -106 -68 -97 -77 4 -5 2 -5 -5 -1 -14 8 -71
-39 -60 -50 4 -5 13 -2 18 6 9 12 10 12 5 -3 -3 -10 -6 -21 -6 -23 0 -3 -4 -2
-10 1 -13 8 -13 -41 1 -66 5 -11 15 -16 21 -13 7 4 8 3 4 -4 -3 -6 3 -16 15
-22 15 -8 19 -9 15 -1 -5 8 5 10 31 7 21 -2 33 -2 27 0 -13 5 -6 54 8 54 9 0
50 86 51 107 1 18 17 4 17 -14 0 -24 12 -8 27 35 14 41 17 88 5 96 -4 2 -34
-12 -67 -32z m29 -39 c-4 -15 -12 -19 -27 -16 -18 4 -20 3 -7 -7 13 -10 12
-11 -3 -6 -10 3 -28 1 -40 -5 -20 -9 -20 -9 -5 4 10 8 15 17 11 21 -4 4 1 4
11 0 12 -5 17 -4 13 3 -3 5 4 9 16 9 16 -1 22 4 20 18 0 10 3 14 8 9 4 -4 6
-18 3 -30z m-77 -129 c-3 -3 -12 -4 -19 -1 -8 3 -5 6 6 6 11 1 17 -2 13 -5z"/>
<path d="M14615 8978 c-2 -7 -7 -58 -12 -113 -5 -72 -9 -87 -11 -53 -3 51 -8
56 -104 112 l-48 27 0 -68 0 -68 80 -45 c67 -37 80 -48 76 -65 -3 -11 -6 -44
-6 -72 0 -44 -3 -53 -18 -53 -10 0 -70 29 -132 65 -63 36 -122 64 -130 63 -8
-2 -16 -12 -18 -23 -2 -16 21 -33 117 -88 131 -74 188 -91 265 -76 65 12 206
94 206 120 0 28 -30 24 -98 -15 -61 -34 -130 -61 -138 -54 -2 3 3 91 12 196 9
106 13 199 10 207 -7 18 -45 20 -51 3z"/>
<path d="M10359 8953 c-13 -16 -12 -17 4 -4 9 7 17 15 17 17 0 8 -8 3 -21 -13z"/>
<path d="M8305 8951 c-3 -5 0 -13 6 -17 7 -4 9 -3 5 4 -3 6 2 13 11 15 16 4
16 5 1 6 -9 0 -19 -3 -23 -8z"/>
<path d="M8365 8950 c-16 -7 -17 -9 -3 -9 9 -1 20 4 23 9 7 11 7 11 -20 0z"/>
<path d="M8274 8931 c6 -9 -18 -34 -25 -26 -3 2 -5 -5 -5 -16 0 -16 3 -17 11
-7 5 7 18 20 27 30 15 14 16 17 2 22 -8 3 -13 2 -10 -3z"/>
<path d="M8294 8898 l-19 -23 25 20 c14 11 27 21 29 22 2 2 0 3 -6 3 -5 0 -18
-10 -29 -22z"/>
<path d="M12946 8892 c13 -12 164 -102 170 -102 16 0 -44 64 -80 85 -39 23
-113 36 -90 17z"/>
<path d="M8255 8859 c-4 -6 -5 -12 -2 -15 2 -3 7 2 10 11 7 17 1 20 -8 4z"/>
<path d="M8242 8636 c-2 -157 -4 -177 -17 -166 -9 7 -15 8 -15 2 0 -5 6 -12
14 -15 8 -3 14 -15 13 -25 -1 -24 -23 -18 -38 10 -6 11 -17 17 -24 14 -8 -3
-17 0 -21 6 -4 6 -3 8 2 5 6 -3 15 -2 22 2 6 4 -9 7 -34 7 -25 1 -42 -2 -37
-6 16 -14 145 -91 146 -88 1 2 0 100 -3 218 l-6 215 -2 -179z"/>
<path d="M12910 8751 c-22 -43 0 -113 50 -155 35 -29 43 -31 71 -16 39 22 16
115 -40 163 -38 32 -66 35 -81 8z"/>
<path d="M13091 8709 c26 -53 30 -70 27 -123 -2 -33 -8 -69 -13 -80 -8 -17 -7
-17 24 -2 38 20 51 50 51 114 0 73 -9 89 -61 122 -27 16 -51 30 -54 30 -2 0
10 -27 26 -61z"/>
<path d="M14996 8698 c-19 -11 -21 -28 -3 -28 7 0 34 -18 61 -40 26 -22 49
-40 50 -40 0 0 16 -4 34 -9 47 -14 41 4 -21 64 -54 53 -92 69 -121 53z"/>
<path d="M12632 8683 c6 -8 21 -19 32 -24 21 -10 21 -10 1 6 -11 9 -19 20 -18
24 1 4 -5 8 -12 8 -11 0 -12 -3 -3 -14z"/>
<path d="M7260 8496 c-293 -154 -634 -333 -845 -443 -110 -58 -201 -106 -202
-107 -4 -3 -63 -239 -63 -249 0 -5 42 14 93 41 50 28 182 97 292 155 110 57
301 157 425 222 124 65 287 150 363 189 l137 71 0 107 c0 80 -3 108 -12 107
-7 0 -92 -42 -188 -93z"/>
<path d="M14952 8568 c-36 -36 18 -159 79 -181 25 -8 59 20 59 49 0 87 -94
176 -138 132z"/>
<path d="M15135 8523 c34 -85 38 -150 13 -196 -9 -17 -8 -17 21 -3 49 26 65
132 30 197 -14 26 -74 27 -64 2z"/>
<path d="M11554 8471 c23 -26 25 -26 22 -3 -2 9 -11 19 -22 21 -19 3 -19 3 0
-18z"/>
<path d="M5892 8390 c-67 -22 -144 -69 -136 -82 5 -7 2 -8 -5 -4 -14 9 -51
-21 -51 -41 0 -8 5 -11 10 -8 6 4 7 12 4 18 -4 7 -4 9 1 5 4 -4 13 -4 19 2 8
6 12 3 12 -10 0 -10 -3 -17 -6 -15 -3 2 -12 0 -20 -5 -9 -5 -19 -5 -27 2 -15
12 -47 -8 -37 -23 3 -5 -1 -9 -8 -9 -10 0 -9 -3 1 -9 11 -7 12 -13 3 -24 -9
-11 -9 -14 3 -14 8 0 11 5 8 10 -3 6 -1 7 6 3 8 -5 9 -12 3 -19 -5 -7 -12 -25
-15 -42 -3 -16 -10 -50 -17 -74 -8 -35 -8 -46 2 -54 10 -7 9 -8 -2 -4 -19 6
-34 -11 -37 -40 -2 -13 -12 -32 -23 -43 -19 -19 -26 -49 -21 -94 1 -16 -1 -17
-14 -6 -21 17 -19 1 3 -23 16 -19 16 -20 -5 -15 -22 6 -23 3 -23 -43 0 -42 -3
-49 -20 -49 -15 0 -20 -7 -20 -27 0 -65 -38 -174 -41 -115 -1 31 -18 -20 -17
-53 1 -29 1 -29 8 5 l7 35 2 -36 c1 -43 -24 -72 -41 -48 -8 11 -9 10 -4 -4 3
-11 9 -30 12 -43 3 -13 10 -24 16 -24 5 0 6 -4 3 -10 -7 -11 58 -145 110 -226
77 -120 248 -335 257 -324 3 3 43 100 91 215 314 763 384 1077 284 1272 -34
65 -128 118 -199 111 -15 -1 -49 -9 -76 -18z m-210 -165 c-2 -14 -8 -23 -12
-20 -7 4 -7 23 -1 43 1 1 5 2 10 2 4 0 6 -11 3 -25z m245 -115 c49 -30 66 -71
61 -154 -8 -154 -135 -323 -265 -350 -46 -10 -99 18 -123 65 -21 41 -27 127
-11 158 6 10 12 31 15 47 2 16 5 31 6 34 1 3 2 9 1 13 -1 5 3 6 8 3 12 -8 23
22 14 37 -3 7 -3 9 2 5 4 -4 22 12 40 35 18 23 46 53 63 66 18 13 29 28 25 34
-3 5 -1 7 4 4 6 -4 26 0 44 8 46 20 78 18 116 -5z m-390 -387 c-3 -10 -5 -4
-5 12 0 17 2 24 5 18 2 -7 2 -21 0 -30z m20 15 c-3 -8 -6 -5 -6 6 -1 11 2 17
5 13 3 -3 4 -12 1 -19z m-127 -328 c0 -5 -5 -10 -11 -10 -5 0 -7 5 -4 10 3 6
8 10 11 10 2 0 4 -4 4 -10z"/>
<path d="M5805 8093 c-42 -22 -65 -44 -65 -61 0 -28 -60 -139 -101 -185 -36
-42 -41 -53 -41 -97 1 -54 22 -104 51 -120 24 -12 82 -13 114 -1 13 5 49 32
80 61 129 117 177 323 94 400 -26 25 -89 26 -132 3z"/>
<path d="M9628 8331 c-18 -10 -96 -51 -173 -91 -77 -40 -167 -88 -200 -106
-33 -19 -94 -52 -137 -75 -58 -32 -77 -48 -81 -67 -7 -35 1 -52 21 -46 14 5
14 4 -1 -6 -9 -6 -15 -15 -12 -20 8 -12 -114 -72 -128 -63 -5 3 -7 2 -4 -4 3
-5 -25 -25 -63 -43 -39 -19 -70 -36 -70 -39 1 -3 25 -51 54 -106 34 -63 59
-99 67 -96 8 2 20 4 27 4 6 0 12 4 12 8 0 4 7 9 15 13 21 8 20 -37 -1 -58 -17
-17 -10 -40 9 -30 7 3 3 -2 -7 -10 -42 -34 -3 -25 99 24 190 89 300 145 303
153 2 4 11 7 21 7 9 0 25 6 36 14 11 7 31 16 45 20 l25 7 -25 -15 c-14 -9 -20
-15 -14 -16 7 0 14 -7 18 -15 5 -13 2 -14 -15 -4 -17 9 -20 8 -13 -2 11 -18
13 -49 3 -43 -4 2 -13 -4 -19 -15 -9 -17 -8 -20 6 -14 12 4 15 3 10 -6 -5 -7
11 -1 34 14 26 17 52 25 66 22 15 -3 24 0 24 9 0 7 21 24 46 38 36 20 50 23
66 15 16 -8 19 -7 16 6 -2 11 12 25 44 42 39 20 50 22 68 13 12 -6 24 -9 28
-6 3 3 0 6 -6 6 -29 0 -8 32 36 54 49 25 49 25 80 6 18 -11 32 -26 32 -34 0
-9 7 -12 19 -9 27 7 74 -26 68 -48 -4 -16 -2 -17 14 -9 23 13 79 -12 79 -35 0
-8 -19 -24 -42 -36 -39 -20 -43 -20 -75 -5 -37 18 -43 41 -12 51 11 4 18 9 16
11 -2 3 -20 -3 -40 -12 -34 -16 -36 -16 -66 6 -26 17 -29 25 -20 36 14 17 -2
19 -19 2 -10 -10 -17 -10 -33 0 -13 8 -18 9 -14 2 4 -6 1 -18 -6 -26 -10 -13
-9 -13 13 -5 20 7 33 5 58 -10 18 -12 30 -25 27 -33 -4 -10 0 -12 14 -9 28 8
79 -16 79 -37 0 -13 6 -17 19 -13 20 5 71 -23 71 -40 0 -5 -8 -16 -17 -24 -11
-8 -4 -7 20 4 36 16 38 16 63 -3 14 -10 26 -23 27 -29 0 -5 -19 -21 -43 -34
-42 -24 -43 -24 -76 -6 -19 10 -34 24 -34 31 0 7 -6 11 -14 8 -8 -3 -29 2 -46
11 -23 12 -31 22 -27 36 4 16 2 17 -14 8 -15 -8 -28 -5 -55 12 -19 12 -33 27
-31 34 4 8 -3 10 -19 7 -28 -5 -78 24 -71 41 3 8 -8 12 -29 12 -21 0 -34 -5
-34 -12 0 -7 9 -13 21 -13 28 0 80 -32 75 -46 -2 -7 4 -9 18 -7 12 3 33 -5 50
-18 l29 -23 -29 -24 -29 -24 41 23 41 23 32 -23 c20 -14 30 -29 27 -38 -4 -10
-2 -12 11 -4 22 12 83 -17 83 -40 0 -12 6 -16 19 -12 20 5 81 -22 81 -36 0 -5
-21 -21 -47 -36 -47 -26 -48 -26 -80 -8 -37 20 -40 30 -15 50 14 12 12 12 -13
0 -26 -13 -33 -13 -62 1 -39 18 -41 33 -10 57 21 16 21 16 -5 1 -15 -9 -37
-16 -48 -16 -28 0 -72 30 -66 45 3 8 -4 10 -20 7 -13 -2 -30 1 -38 7 -11 9
-12 6 -9 -13 3 -16 10 -23 19 -19 8 3 28 0 45 -7 24 -10 30 -18 26 -36 -3 -20
-1 -22 14 -13 23 12 89 -13 89 -34 0 -7 -22 -24 -49 -36 -46 -22 -50 -22 -80
-7 -30 16 -43 46 -19 46 6 0 9 3 6 6 -3 3 -15 0 -25 -7 -29 -17 -87 14 -80 43
5 16 3 18 -6 9 -18 -18 -40 -13 -73 17 -34 30 -69 38 -77 18 -4 -9 0 -12 13
-9 27 7 83 -25 76 -44 -4 -11 -2 -14 9 -9 21 8 85 -24 85 -42 0 -8 6 -12 15
-8 20 7 87 -33 81 -49 -3 -8 2 -11 14 -8 23 6 82 -25 77 -40 -2 -7 -23 -23
-47 -36 -42 -24 -43 -24 -77 -6 -24 13 -33 24 -30 36 4 14 1 16 -17 9 -29 -11
-76 14 -76 41 0 16 -3 18 -17 10 -11 -6 -24 -6 -35 0 -13 7 -16 6 -12 -5 3 -8
-5 -21 -18 -30 -12 -9 -18 -16 -12 -16 5 0 19 7 31 15 21 14 28 13 102 -27 44
-24 81 -45 81 -49 0 -3 -21 -15 -46 -27 l-46 -23 -78 43 c-59 31 -76 46 -69
55 8 9 4 9 -18 1 -24 -9 -34 -8 -56 7 -15 9 -27 23 -27 30 0 10 -9 11 -35 5
-19 -4 -33 -4 -30 0 3 5 1 11 -5 15 -5 3 -10 -1 -10 -9 0 -10 -6 -13 -15 -10
-13 5 -13 9 -3 23 10 13 10 14 -1 4 -9 -7 -13 -35 -13 -77 0 -36 -4 -64 -8
-61 -5 3 -11 2 -14 -3 -2 -4 25 -24 62 -44 123 -66 166 -89 238 -129 39 -21
79 -39 89 -39 10 0 77 31 149 69 72 38 210 110 306 161 96 51 222 117 280 147
212 111 270 145 270 156 0 7 -26 26 -58 42 -274 146 -513 271 -644 339 -103
53 -156 85 -153 94 3 7 -35 93 -85 191 -96 193 -104 202 -162 172z m-548 -325
c0 -2 -7 -7 -16 -10 -8 -3 -12 -2 -9 4 6 10 25 14 25 6z m-10 -30 c0 -2 -7 -6
-15 -10 -8 -3 -15 -1 -15 4 0 6 7 10 15 10 8 0 15 -2 15 -4z m1155 -328 c36
-16 31 -34 -15 -58 -47 -24 -63 -25 -95 -4 -34 22 -32 30 13 53 43 23 62 25
97 9z m-750 -9 c11 -16 1 -19 -13 -3 -7 8 -8 14 -3 14 5 0 13 -5 16 -11z m838
-41 c36 -17 30 -38 -19 -65 -39 -22 -43 -22 -73 -7 -41 20 -39 39 7 63 44 24
50 25 85 9z m95 -54 c33 -23 27 -38 -22 -64 -43 -22 -45 -22 -75 -4 -17 10
-31 23 -31 29 0 12 68 52 90 54 9 1 26 -6 38 -15z m-133 -61 c19 -9 35 -23 35
-30 0 -7 -20 -23 -44 -35 -39 -19 -48 -20 -75 -8 -41 17 -39 40 7 67 20 12 38
22 39 23 1 0 18 -8 38 -17z m-240 -134 c41 -25 37 -36 -25 -64 -33 -15 -44
-16 -69 -5 -46 19 -44 35 7 64 26 14 48 26 49 26 1 0 18 -10 38 -21z"/>
<path d="M9844 8325 c4 -12 -5 -15 -50 -15 l-55 0 78 -152 78 -152 235 -123
c129 -67 246 -124 260 -126 14 -3 75 2 135 9 131 16 211 24 243 24 13 0 20 4
17 10 -11 18 51 -11 300 -142 236 -123 253 -131 310 -132 57 -1 66 3 175 65
63 36 135 78 160 91 321 180 529 300 548 316 18 17 22 31 22 77 0 51 -2 55
-15 41 -13 -13 -111 -70 -300 -176 -22 -12 -69 -39 -105 -60 -232 -133 -373
-212 -411 -230 -85 -38 -61 -47 -609 237 -47 25 -100 51 -119 59 -30 12 -32
12 -21 -1 7 -8 10 -16 6 -16 -3 -1 -10 -3 -16 -4 -5 -1 -16 -3 -22 -4 -9 -1
-9 -4 2 -11 10 -6 20 -4 31 6 11 10 19 12 24 5 3 -6 -1 -11 -9 -11 -8 0 -16
-7 -18 -15 -3 -16 -83 22 -393 185 -170 89 -416 218 -442 232 -13 6 -23 15
-23 20 0 4 -5 8 -11 8 -6 0 -9 -7 -5 -15z m920 -460 c11 -8 16 -15 10 -15 -5
0 -18 7 -28 15 -11 8 -16 15 -10 15 5 0 18 -7 28 -15z"/>
<path d="M14000 8273 c1 -11 160 -103 160 -93 0 4 -17 22 -37 40 -48 43 -124
75 -123 53z"/>
<path d="M12462 8089 l3 -161 110 -59 c61 -32 113 -59 118 -59 4 0 7 72 7 159
l0 159 -114 61 c-63 34 -117 61 -120 61 -4 0 -5 -73 -4 -161z"/>
<path d="M5594 8168 c-4 -5 -3 -12 0 -15 3 -4 6 -1 6 6 0 7 4 10 9 6 5 -3 12
-2 15 3 3 5 -2 9 -10 9 -8 0 -17 -4 -20 -9z"/>
<path d="M14136 8094 c32 -61 35 -75 32 -129 -2 -33 -8 -69 -13 -79 -8 -19 -6
-18 22 2 40 28 57 78 48 142 -8 58 -16 70 -77 105 l-47 26 35 -67z"/>
<path d="M13968 8139 c-25 -14 -23 -73 4 -121 38 -67 110 -87 124 -34 19 77
-73 187 -128 155z"/>
<path d="M8343 8050 c-4 -4 -28 -18 -53 -31 -25 -13 -52 -29 -60 -35 -8 -6
-40 -25 -70 -41 -30 -16 -108 -60 -173 -98 l-118 -68 45 -25 c42 -23 46 -29
46 -62 l0 -37 53 -7 c67 -8 353 -6 392 3 27 6 28 7 9 13 -12 3 -28 2 -35 -3
-8 -5 -25 -8 -39 -8 -22 1 -21 2 8 10 40 12 42 23 2 14 -34 -8 -35 -5 -24 104
8 68 24 83 24 21 0 -29 4 -40 15 -40 19 0 19 23 1 155 l-14 100 25 20 24 20
-25 1 c-13 1 -28 -2 -33 -6z m4 -25 c-18 -17 -27 -36 -27 -55 0 -17 -5 -30
-10 -30 -6 0 -10 16 -8 38 2 26 10 42 28 54 38 25 48 21 17 -7z"/>
<path d="M16972 8049 c-3 -20 -46 -65 -81 -82 -14 -7 -69 -36 -121 -64 -52
-28 -162 -85 -245 -128 -82 -43 -182 -95 -221 -116 -39 -22 -78 -39 -87 -39
-8 0 -28 -11 -44 -23 -15 -13 -66 -43 -113 -67 -47 -23 -218 -112 -380 -198
-162 -85 -347 -182 -410 -215 -63 -33 -185 -97 -270 -142 -85 -45 -189 -99
-230 -120 -41 -21 -115 -60 -164 -87 -49 -26 -91 -48 -93 -48 -2 0 -75 -38
-161 -84 -86 -46 -215 -114 -287 -151 -71 -37 -170 -89 -220 -115 -108 -57
-239 -125 -520 -273 -274 -143 -529 -277 -795 -417 -118 -62 -304 -159 -412
-216 -109 -57 -289 -152 -400 -210 -212 -112 -549 -287 -778 -407 -74 -38
-157 -82 -185 -97 -27 -16 -106 -57 -175 -93 -254 -131 -596 -310 -635 -332
-22 -12 -103 -55 -180 -95 -130 -68 -269 -140 -750 -393 -104 -54 -251 -131
-325 -169 -74 -39 -205 -108 -290 -153 -85 -45 -202 -107 -260 -137 -58 -30
-166 -87 -241 -127 -75 -39 -143 -71 -151 -71 -9 0 -21 -7 -28 -15 -6 -8 -46
-32 -88 -54 -125 -65 -338 -183 -319 -177 9 3 17 1 17 -4 0 -5 -10 -12 -21
-15 -17 -6 -19 -9 -8 -16 8 -5 19 -9 24 -9 6 0 3 5 -5 10 -8 5 -10 10 -4 10
17 0 25 -12 14 -25 -10 -12 -19 -415 -9 -415 4 0 9 -9 12 -19 6 -24 -29 -51
-106 -79 -113 -43 -278 -24 -379 43 -21 14 -41 25 -46 25 -5 0 -17 9 -27 20
-10 11 -20 18 -23 15 -2 -2 -13 6 -24 18 -11 12 -17 16 -13 10 4 -9 1 -11 -9
-7 -9 3 -16 10 -16 15 0 5 -6 9 -13 9 -12 0 -686 381 -784 443 -24 15 -44 27
-46 27 -2 0 -43 22 -91 50 -47 28 -125 73 -172 100 -48 28 -88 50 -89 50 -1 0
-42 23 -91 51 -115 67 -479 276 -524 302 -19 11 -125 71 -235 135 -110 64
-245 141 -300 172 -55 31 -163 93 -240 137 -77 44 -157 90 -178 102 -21 12
-107 61 -190 110 -84 48 -183 105 -222 126 -38 21 -81 46 -95 55 -14 10 -47
30 -75 45 -44 24 -366 208 -619 354 -49 28 -91 51 -93 51 -2 0 -32 17 -66 38
-57 36 -91 56 -187 109 -163 92 -166 94 -194 148 l-16 30 0 -26 c0 -15 15 -48
33 -74 33 -49 95 -87 682 -420 61 -34 184 -105 275 -157 91 -52 431 -247 755
-433 325 -186 678 -388 785 -450 189 -109 550 -316 1330 -763 206 -118 484
-277 617 -354 133 -77 267 -148 297 -159 71 -24 205 -26 273 -3 26 9 143 66
258 127 116 60 300 157 410 215 110 57 245 128 300 157 55 29 429 225 830 435
977 512 2432 1274 4690 2457 1029 539 2169 1137 2535 1328 366 191 679 361
697 377 17 17 35 46 40 67 4 20 6 160 3 311 -3 151 -7 268 -8 259z m-1984
-1209 l32 -20 0 -104 c0 -123 2 -120 -111 -176 -81 -41 -125 -51 -116 -27 3 8
1 20 -4 28 -5 10 -8 5 -6 -14 1 -15 9 -32 17 -37 13 -8 12 -10 -3 -10 -10 0
-29 7 -42 16 -24 16 -25 20 -25 128 0 61 4 116 8 122 8 13 192 114 207 114 6
0 25 -9 43 -20z m-488 -228 c22 -18 22 -18 -75 -67 -53 -26 -103 -59 -112 -71
-11 -17 -14 -47 -11 -123 2 -56 1 -101 -2 -101 -3 1 -15 9 -27 19 -21 18 -23
27 -23 128 0 59 4 113 8 120 9 14 191 113 208 113 7 0 22 -8 34 -18z"/>
<path d="M10634 7956 c1 -8 5 -18 8 -22 4 -3 5 1 4 10 -1 8 -5 18 -8 22 -4 3
-5 -1 -4 -10z"/>
<path d="M10660 7946 c0 -2 7 -7 16 -10 8 -3 12 -2 9 4 -6 10 -25 14 -25 6z"/>
<path d="M9018 7913 c7 -3 16 -2 19 1 4 3 -2 6 -13 5 -11 0 -14 -3 -6 -6z"/>
<path d="M8656 7851 c-24 -27 -43 -99 -39 -146 3 -22 22 -71 43 -110 20 -38
70 -128 109 -199 39 -72 71 -136 71 -143 0 -7 11 -19 23 -28 22 -14 28 -13 71
6 26 11 50 18 53 16 2 -3 -6 -8 -18 -12 -31 -10 -242 -126 -250 -138 -3 -5
-10 -9 -15 -9 -5 0 -20 -6 -34 -14 -25 -15 -25 -15 -1 -8 16 4 21 3 17 -5 -5
-7 -1 -9 11 -5 17 6 17 6 0 -8 -12 -9 -19 -29 -20 -56 -2 -36 -5 -42 -20 -38
-15 4 -16 2 -6 -11 10 -12 10 -17 -2 -25 -11 -8 -11 -9 4 -4 9 3 17 1 17 -4 0
-5 -6 -10 -12 -13 -7 -2 -1 -2 14 0 27 4 58 -25 58 -56 0 -12 -3 -12 -17 1
-34 29 -48 31 -23 3 14 -16 20 -25 14 -22 -7 4 -14 0 -18 -8 -3 -8 -12 -12
-21 -9 -8 4 -15 1 -15 -6 0 -7 -7 -10 -16 -6 -9 4 -13 2 -8 -5 4 -7 0 -9 -12
-5 -11 3 -25 2 -32 -2 -9 -6 -5 -12 13 -20 15 -7 24 -8 21 -3 -6 10 24 25 32
16 3 -3 0 -5 -6 -5 -45 0 47 -71 135 -103 24 -9 41 -1 298 134 77 40 165 85
196 100 30 15 79 41 107 58 53 31 64 31 37 1 -14 -16 -13 -19 9 -33 73 -49
276 -147 302 -147 29 1 63 18 484 240 118 63 269 142 335 177 66 35 139 73
161 85 35 17 43 27 48 57 8 52 7 148 -2 134 -4 -7 -75 -48 -157 -91 -83 -43
-294 -154 -470 -247 -176 -93 -331 -174 -345 -182 -54 -28 -77 -19 -450 182
-169 92 -371 199 -429 228 -42 21 -47 28 -142 226 -99 203 -110 236 -87 259 6
6 9 14 6 17 -2 3 -13 -3 -22 -14z m474 -676 c0 -3 -27 8 -60 25 -33 17 -60 33
-60 35 0 3 27 -8 60 -25 33 -17 60 -33 60 -35z m106 -50 c10 -8 14 -15 8 -15
-5 0 -19 7 -30 15 -10 8 -14 15 -8 15 5 0 19 -7 30 -15z m-95 -14 c20 -17 22
-22 10 -33 -11 -10 -14 -10 -18 0 -7 18 -21 15 -19 -5 0 -10 -8 -19 -19 -21
-11 -2 -24 -10 -28 -18 -4 -8 -17 -14 -27 -14 -11 0 -20 -4 -20 -10 0 -5 -7
-7 -15 -4 -8 4 -17 -1 -21 -9 -5 -13 -74 -57 -88 -57 -2 0 -6 9 -9 21 -3 12
-10 18 -17 14 -8 -5 -8 -10 0 -20 6 -7 8 -20 4 -29 -7 -18 -24 -22 -24 -6 0 6
-4 10 -10 10 -5 0 -7 -7 -4 -15 4 -9 -3 -16 -20 -21 -14 -3 -26 -10 -26 -14 0
-4 -10 -10 -21 -13 -15 -4 -31 4 -56 28 l-35 34 38 -6 c32 -5 36 -4 31 11 -4
10 -3 15 3 11 10 -6 67 19 129 56 22 13 43 18 58 14 19 -4 23 -2 21 12 -2 12
3 18 15 17 9 -1 17 4 17 11 0 18 21 24 42 14 13 -7 15 -5 11 11 -4 15 0 20 14
20 10 0 25 -6 33 -12 12 -11 12 -10 0 5 -12 16 -12 20 1 28 20 12 24 12 50
-10z m-424 -37 c-3 -3 -12 -4 -19 -1 -8 3 -5 6 6 6 11 1 17 -2 13 -5z m643
-20 c0 -2 -9 0 -20 6 -11 6 -20 13 -20 16 0 2 9 0 20 -6 11 -6 20 -13 20 -16z"/>
<path d="M8902 6984 c11 -11 23 -14 35 -9 17 7 17 8 -2 15 -11 5 -27 9 -35 9
-12 1 -11 -2 2 -15z"/>
<path d="M6790 7432 l0 -281 128 -72 c70 -39 170 -97 222 -127 52 -30 109 -63
125 -72 17 -9 47 -27 68 -39 l37 -23 0 281 0 280 -132 75 -133 75 -3 -60 c-2
-32 -5 -59 -7 -59 -2 0 -20 9 -39 21 -35 21 -36 22 -36 84 l0 63 -77 45 c-43
25 -95 55 -115 67 l-38 22 0 -280z"/>
<path d="M12040 7531 c0 -141 -2 -160 -17 -165 -12 -5 20 -27 114 -77 73 -38
135 -69 138 -69 3 0 5 78 5 174 l0 174 -115 61 c-63 34 -117 61 -120 61 -3 0
-5 -72 -5 -159z"/>
<path d="M9583 7607 c9 -8 17 -19 17 -25 0 -6 7 -9 14 -6 23 9 78 -28 73 -48
-4 -14 -1 -16 12 -9 10 6 23 6 32 0 22 -14 28 -11 22 10 -3 11 -11 17 -18 15
-17 -7 -74 23 -82 41 -3 8 -9 12 -14 10 -5 -3 -23 1 -41 10 -24 11 -28 12 -15
2z"/>
<path d="M9377 7579 c5 -5 23 -12 39 -15 37 -7 26 4 -16 16 -23 7 -30 6 -23
-1z"/>
<path d="M9353 7565 c0 -8 4 -12 9 -9 5 3 6 10 3 15 -9 13 -12 11 -12 -6z"/>
<path d="M8916 7561 c-3 -5 1 -12 10 -15 22 -8 25 -4 9 11 -8 7 -16 9 -19 4z"/>
<path d="M5385 7520 c-3 -5 -1 -10 4 -10 6 0 11 5 11 10 0 6 -2 10 -4 10 -3 0
-8 -4 -11 -10z"/>
<path d="M9470 7519 c0 -3 14 -9 30 -11 19 -3 30 0 30 7 0 6 -13 12 -30 12
-16 0 -30 -4 -30 -8z"/>
<path d="M9650 7500 c-9 -6 -10 -10 -3 -10 6 0 15 5 18 10 8 12 4 12 -15 0z"/>
<path d="M9351 7454 c0 -11 3 -14 6 -6 3 7 2 16 -1 19 -3 4 -6 -2 -5 -13z"/>
<path d="M6207 7187 c2 -231 0 -274 -13 -283 -15 -12 17 -33 191 -129 28 -15
55 -31 60 -35 14 -12 440 -257 504 -291 51 -28 82 -39 51 -19 -8 5 -10 10 -5
10 13 0 103 -47 259 -134 l116 -65 0 277 0 277 -132 77 -133 77 -3 -60 c-2
-32 -6 -59 -9 -59 -3 0 -21 9 -39 21 -33 20 -34 23 -34 84 l0 63 -247 141
-248 141 -3 -48 c-4 -72 -7 -75 -44 -52 -31 18 -33 24 -38 86 l-5 66 -110 64
c-60 35 -112 64 -115 64 -3 0 -4 -123 -3 -273z"/>
<path d="M9380 7450 c8 -5 20 -10 25 -10 6 0 3 5 -5 10 -8 5 -19 10 -25 10 -5
0 -3 -5 5 -10z"/>
<path d="M9437 7411 c3 -11 11 -17 18 -15 7 3 25 -2 39 -11 25 -16 25 -16 13
8 -7 16 -17 22 -29 19 -10 -2 -24 1 -32 7 -12 10 -13 8 -9 -8z"/>
<path d="M9534 7348 c0 -11 5 -14 16 -9 8 5 20 6 26 4 6 -2 14 2 16 9 4 9 -4
13 -26 13 -23 0 -32 -5 -32 -17z"/>
<path d="M9348 7333 c7 -3 16 -2 19 1 4 3 -2 6 -13 5 -11 0 -14 -3 -6 -6z"/>
<path d="M11495 7321 c-3 -5 -2 -12 3 -15 5 -3 9 1 9 9 0 17 -3 19 -12 6z"/>
<path d="M7956 7163 c7 -52 17 -64 84 -97 25 -12 102 -53 173 -90 117 -61 133
-66 128 -34 0 4 7 4 16 1 11 -4 14 -3 9 5 -5 8 -2 10 8 6 9 -3 24 -3 33 0 15
6 15 8 -3 20 -10 7 -62 35 -114 61 -52 27 -148 77 -212 112 -64 34 -120 63
-122 63 -3 0 -3 -21 0 -47z m294 -157 c0 -2 -8 -10 -17 -17 -16 -13 -17 -12
-4 4 13 16 21 21 21 13z"/>
<path d="M9313 7185 c0 -12 3 -12 16 -3 9 7 18 14 20 15 2 2 -5 3 -16 3 -11 0
-20 -7 -20 -15z"/>
<path d="M11420 7019 c-96 -56 -231 -134 -300 -174 -69 -40 -141 -82 -160 -93
-19 -11 -73 -42 -120 -69 -47 -27 -160 -93 -252 -146 -93 -53 -243 -141 -335
-194 -233 -135 -256 -145 -314 -146 -58 -1 -62 -20 -5 -25 54 -5 87 11 390
185 149 86 286 165 304 175 18 10 93 53 165 95 256 147 392 226 432 248 22 13
119 68 215 124 l175 101 5 -118 5 -117 105 -57 c58 -31 110 -57 117 -57 8 -1
11 32 10 116 l-2 116 -108 57 c-60 32 -113 62 -120 69 -6 6 -16 11 -21 11 -6
0 -90 -46 -186 -101z"/>
<path d="M13630 6881 c-14 -10 -83 -49 -155 -86 -71 -37 -136 -72 -143 -78 -7
-6 -31 -10 -53 -9 -43 2 -45 -12 -3 -22 20 -5 63 12 202 85 165 85 191 102
192 122 0 12 -13 8 -40 -12z"/>
<path d="M8910 6682 c0 -5 46 -32 103 -60 56 -28 188 -97 294 -152 106 -55
197 -100 202 -100 34 0 -5 27 -136 96 -82 42 -210 110 -285 150 -127 68 -178
87 -178 66z"/>
<path d="M13175 6636 c-233 -127 -299 -158 -328 -152 -20 4 -27 2 -25 -7 3 -6
19 -13 36 -15 24 -3 66 15 169 70 76 40 154 81 174 91 21 10 40 25 43 33 8 20
-1 17 -69 -20z"/>
<path d="M11192 6314 l3 -327 90 -50 c152 -83 301 -157 316 -157 34 0 379 187
379 206 0 8 -1 14 -3 14 -2 0 -83 -43 -180 -95 -101 -54 -189 -95 -205 -95
-15 0 -56 17 -92 38 l-65 38 -3 311 -2 312 -43 24 c-23 13 -77 43 -120 66
l-77 42 2 -327z"/>
<path d="M12795 6437 c-11 -8 -69 -40 -130 -72 -60 -32 -134 -71 -163 -86 -39
-21 -58 -26 -75 -20 -18 7 -24 4 -33 -18 -6 -14 -26 -34 -45 -44 -19 -9 -98
-51 -177 -93 -118 -62 -148 -74 -172 -69 -17 4 -30 2 -30 -3 0 -13 25 -22 58
-22 26 0 360 173 374 194 4 6 6 17 3 24 -3 9 4 11 28 7 27 -5 59 9 206 89 96
52 178 101 183 110 11 19 -1 21 -27 3z"/>
<path d="M9620 6285 c0 -80 2 -145 4 -145 3 0 62 33 131 74 l126 74 -126 71
c-69 39 -127 71 -130 71 -3 0 -5 -65 -5 -145z"/>
<path d="M6335 6174 c-181 -107 -335 -200 -342 -206 -10 -8 -13 -100 -13 -439
l0 -429 -47 29 -48 30 -22 -21 c-21 -20 -23 -30 -23 -130 l0 -109 58 32 c31
18 75 48 96 66 46 38 63 40 116 13 99 -51 181 -233 140 -311 -11 -20 3 -28 15
-9 12 20 41 9 125 -45 47 -30 93 -55 102 -55 16 0 573 331 675 401 38 27 43
34 43 69 0 29 -5 42 -19 50 -13 6 -21 23 -23 45 l-3 34 -55 -34 c-30 -19 -59
-35 -63 -35 -4 0 -7 23 -5 52 3 51 3 52 63 88 50 30 61 42 63 67 2 25 -101
439 -112 451 -2 1 -93 -50 -202 -114 -110 -64 -257 -150 -328 -192 -71 -41
-135 -75 -142 -75 -6 0 -91 46 -188 104 -135 79 -173 106 -163 115 6 6 149 91
317 188 168 98 308 181 313 185 4 4 6 91 5 193 l-3 186 -330 -194z m528 -586
c-2 -29 -9 -69 -14 -88 -4 -19 -11 -71 -14 -115 -3 -44 -10 -108 -16 -142 -9
-53 -16 -65 -42 -82 -17 -11 -34 -18 -37 -16 -7 5 23 186 34 203 4 6 16 67 27
134 16 100 24 126 42 140 12 10 23 18 24 18 1 0 -1 -24 -4 -52z m262 -208 c3
-6 -1 -7 -9 -4 -18 7 -21 14 -7 14 6 0 13 -4 16 -10z m-465 -443 c0 -29 -6
-49 -17 -59 -21 -18 -138 -88 -147 -88 -3 0 -6 22 -6 49 l0 49 73 46 c39 25
78 46 85 46 8 0 12 -15 12 -43z"/>
<path d="M9694 6105 c-16 -24 -16 -27 1 -45 15 -16 18 -42 19 -168 l1 -148
-30 -49 c-84 -137 -252 -166 -310 -55 -16 31 -38 193 -33 240 4 35 -28 39 -44
6 -8 -19 -8 -32 0 -49 6 -12 14 -57 17 -100 9 -100 36 -153 95 -184 89 -47
191 -17 279 83 67 76 77 127 62 310 -7 83 -11 157 -9 164 6 26 -30 22 -48 -5z"/>
<path d="M8886 5978 c-9 -38 -36 -202 -36 -216 0 -9 5 -10 16 -4 12 7 30 2 62
-16 38 -22 42 -27 26 -33 -13 -4 -6 -6 19 -6 21 1 41 -3 45 -9 4 -5 19 -15 34
-23 15 -8 25 -18 21 -24 -3 -5 3 -6 16 -2 14 4 21 2 21 -7 0 -7 5 -69 10 -138
6 -69 12 -159 15 -200 4 -41 10 -129 16 -195 5 -66 14 -181 19 -255 6 -74 13
-149 16 -167 6 -32 32 -52 43 -34 4 5 -15 272 -41 593 -26 321 -47 590 -48
600 0 10 -38 37 -102 73 -56 31 -112 64 -124 72 -22 14 -24 13 -28 -9z"/>
<path d="M4370 5850 c-9 -6 -10 -10 -3 -10 6 0 15 5 18 10 8 12 4 12 -15 0z"/>
<path d="M4696 5774 c0 -47 4 -59 25 -75 13 -10 30 -17 37 -14 7 3 10 0 7 -5
-3 -6 -2 -10 3 -10 6 0 13 11 16 25 3 13 15 33 26 43 20 19 20 19 -42 53 -35
19 -65 35 -68 37 -3 1 -5 -23 -4 -54z m50 1 c-10 -8 -11 -16 -4 -29 5 -9 8
-20 5 -23 -3 -2 -8 5 -12 17 -6 18 -9 19 -23 8 -14 -10 -13 -8 1 9 14 16 15
22 5 26 -7 2 -1 4 15 3 21 -1 24 -3 13 -11z m27 -15 c-3 -12 -8 -19 -11 -16
-5 6 5 36 12 36 2 0 2 -9 -1 -20z m7 -44 c0 -3 -4 -8 -10 -11 -5 -3 -10 -1
-10 4 0 6 5 11 10 11 6 0 10 -2 10 -4z"/>
<path d="M4882 5648 c-30 -30 0 -119 52 -153 19 -13 29 -14 45 -5 40 21 20
106 -35 149 -30 24 -45 26 -62 9z"/>
<path d="M5050 5601 c26 -52 35 -113 21 -152 -15 -43 -9 -46 25 -11 l29 29
114 -63 c62 -35 118 -61 124 -57 5 3 7 1 3 -5 -3 -6 11 -18 34 -28 22 -10 40
-21 40 -26 0 -4 7 -8 15 -8 9 0 15 9 15 23 0 12 7 32 15 44 14 20 14 23 -5 33
-11 6 -26 8 -32 4 -7 -4 -8 -3 -4 4 9 15 -48 44 -71 36 -14 -5 -15 -4 -4 4 11
8 10 12 -8 21 -12 7 -26 9 -31 6 -5 -3 -18 -1 -27 5 -15 9 -14 10 7 5 24 -6
24 -6 5 10 -11 8 -26 13 -34 10 -9 -3 -12 -3 -8 1 10 10 -115 85 -131 79 -7
-3 -11 -1 -8 4 6 9 -79 71 -96 71 -5 0 1 -18 12 -39z m123 -76 c-7 -21 -12
-19 -10 4 0 11 5 18 9 15 4 -3 5 -11 1 -19z m43 -7 c5 -8 2 -9 -9 -5 -12 4
-17 1 -17 -10 0 -9 -3 -14 -6 -10 -9 8 3 37 15 37 5 0 13 -5 17 -12z m-15 -41
c-10 -9 -11 -8 -5 6 3 10 9 15 12 12 3 -3 0 -11 -7 -18z m44 -37 c-3 -5 -11
-10 -16 -10 -6 0 -7 5 -4 10 3 6 11 10 16 10 6 0 7 -4 4 -10z m162 -36 c-3 -3
-12 -4 -19 -1 -8 3 -5 6 6 6 11 1 17 -2 13 -5z m-22 -24 c-3 -5 -12 -10 -18
-10 -7 0 -6 4 3 10 19 12 23 12 15 0z"/>
<path d="M9015 5619 c-11 -16 -1 -19 13 -3 7 8 8 14 3 14 -5 0 -13 -5 -16 -11z"/>
<path d="M8900 5586 c0 -9 30 -14 35 -6 4 6 -3 10 -14 10 -12 0 -21 -2 -21 -4z"/>
<path d="M8950 5495 c-9 -11 -10 -22 -2 -42 6 -16 14 -75 17 -133 6 -101 6
-107 -22 -160 -35 -69 -105 -120 -164 -120 -30 0 -47 7 -75 33 -34 31 -35 35
-47 145 -11 105 -13 112 -30 100 -16 -12 -16 -19 -3 -118 16 -113 31 -142 85
-174 87 -51 221 14 274 133 18 41 19 57 12 171 -5 69 -8 137 -8 153 0 30 -17
36 -37 12z"/>
<path d="M8271 5345 c-1 -11 -4 -31 -6 -45 l-6 -25 11 25 c6 13 9 33 7 45 -4
19 -4 19 -6 0z"/>
<path d="M8290 5340 c0 -5 5 -10 11 -10 5 0 7 5 4 10 -3 6 -8 10 -11 10 -2 0
-4 -4 -4 -10z"/>
<path d="M8356 5326 c10 -8 21 -12 24 -10 5 6 -21 24 -34 24 -6 0 -1 -6 10
-14z"/>
<path d="M8295 5279 c-4 -6 -5 -12 -2 -15 2 -3 7 2 10 11 7 17 1 20 -8 4z"/>
<path d="M8252 5250 c0 -14 2 -19 5 -12 2 6 2 18 0 25 -3 6 -5 1 -5 -13z"/>
<path d="M8301 5214 c0 -11 3 -14 6 -6 3 7 2 16 -1 19 -3 4 -6 -2 -5 -13z"/>
<path d="M3996 5107 c4 -12 1 -17 -10 -17 -26 0 -37 -34 -20 -59 16 -22 90
-73 171 -116 26 -14 62 -33 78 -43 72 -42 185 -109 244 -144 35 -20 69 -35 75
-31 6 3 8 3 4 -2 -10 -11 50 -47 64 -39 7 4 8 2 4 -4 -4 -7 -3 -12 2 -12 5 0
26 -11 47 -25 28 -19 40 -23 50 -15 10 8 15 8 21 -1 4 -8 3 -9 -4 -5 -7 4 -12
3 -12 -1 0 -14 40 -34 52 -27 6 4 8 3 4 -4 -7 -12 23 -25 45 -19 8 2 10 2 6
-1 -10 -5 22 -42 37 -42 6 0 4 5 -4 10 -13 8 -12 10 3 10 9 0 17 -6 17 -14 0
-15 27 -30 49 -27 7 1 10 -2 7 -8 -4 -5 -1 -13 5 -17 8 -4 9 -3 5 4 -5 8 1 12
17 12 14 0 30 6 36 14 11 13 20 10 64 -16 29 -16 54 -34 55 -39 2 -5 9 -6 14
-3 7 4 8 2 4 -5 -4 -6 -11 -9 -16 -6 -5 3 -13 -2 -18 -11 -7 -13 -13 -14 -28
-6 -17 10 -16 11 9 17 15 4 24 12 21 17 -4 6 -10 6 -17 -1 -6 -6 -19 -11 -28
-11 -10 0 -21 -5 -25 -12 -4 -6 -3 -8 3 -5 6 4 16 0 23 -8 15 -18 50 -20 50
-4 0 8 4 8 15 -1 8 -6 20 -10 27 -7 8 3 6 6 -5 6 -10 1 -16 5 -13 9 3 5 13 8
23 7 24 -2 83 -33 83 -44 0 -5 15 -14 33 -21 45 -17 69 -29 91 -45 19 -14 19
-15 0 -37 -11 -14 -13 -18 -3 -10 9 6 19 8 23 4 4 -4 6 0 4 8 -2 8 4 15 12 15
8 0 14 -6 12 -13 -1 -8 2 -11 7 -8 8 5 149 -69 311 -164 264 -155 587 -332
623 -342 24 -6 59 -8 81 -4 37 7 212 94 436 216 58 32 161 87 230 123 69 36
190 100 270 142 80 43 209 111 288 152 126 66 162 93 162 119 0 4 -10 -2 -22
-13 -28 -25 -63 -45 -203 -118 -105 -55 -175 -92 -345 -183 -41 -22 -158 -83
-260 -137 -102 -54 -261 -139 -355 -189 -160 -85 -174 -91 -230 -91 -70 0 -84
6 -325 146 -91 53 -367 212 -615 354 -247 142 -463 266 -480 275 -154 90 -480
278 -520 300 -195 109 -424 245 -443 263 -18 17 -22 18 -16 4z m690 -483 c1
-21 -7 -29 -8 -7 -1 4 -8 14 -17 21 -14 11 -14 11 3 5 15 -5 17 -3 11 8 -5 8
-4 11 1 6 4 -4 9 -19 10 -33z m63 -10 c14 -12 -19 -1 -35 12 -18 14 -18 14 6
3 14 -6 27 -13 29 -15z m86 -33 c-6 -5 -25 10 -25 20 0 5 6 4 14 -3 8 -7 12
-15 11 -17z m45 -16 c7 -8 9 -15 6 -15 -4 0 -14 7 -22 15 -9 8 -11 15 -6 15 5
0 15 -7 22 -15z m30 -40 c0 -1 -6 -7 -13 -13 -10 -8 -13 -6 -13 7 0 11 6 17
13 14 7 -3 13 -6 13 -8z m35 -3 c-3 -3 -11 0 -18 7 -9 10 -8 11 6 5 10 -3 15
-9 12 -12z m0 -22 c-11 -5 -27 -9 -35 -9 -9 0 -8 4 5 9 11 5 27 9 35 9 9 0 8
-4 -5 -9z m26 -13 c-10 -9 -11 -8 -5 6 3 10 9 15 12 12 3 -3 0 -11 -7 -18z"/>
<path d="M8481 5054 c0 -11 3 -14 6 -6 3 7 2 16 -1 19 -3 4 -6 -2 -5 -13z"/>
<path d="M9920 5038 c-314 -183 -614 -357 -647 -376 -24 -13 -43 -28 -43 -33
0 -5 2 -9 4 -9 1 0 140 80 307 178 167 98 330 193 361 211 54 30 80 52 61 50
-4 0 -24 -10 -43 -21z"/>
<path d="M3026 5043 c-3 -3 -6 -58 -6 -121 0 -98 3 -117 18 -128 9 -7 20 -14
25 -14 4 0 7 56 7 125 0 111 -2 125 -19 134 -10 6 -21 7 -25 4z"/>
<path d="M8210 5026 c0 -8 4 -17 9 -20 5 -4 7 3 4 14 -6 23 -13 26 -13 6z"/>
<path d="M3120 4870 c0 -108 2 -120 19 -130 11 -5 22 -10 25 -10 3 0 6 56 6
124 0 126 -3 136 -41 136 -5 0 -9 -54 -9 -120z"/>
<path d="M8480 4975 c0 -5 5 -17 10 -25 5 -8 10 -10 10 -5 0 6 -5 17 -10 25
-5 8 -10 11 -10 5z"/>
<path d="M8201 4954 c0 -11 3 -14 6 -6 3 7 2 16 -1 19 -3 4 -6 -2 -5 -13z"/>
<path d="M3210 4816 c0 -126 3 -136 41 -136 14 0 11 234 -3 248 -32 32 -38 14
-38 -112z"/>
<path d="M6066 4914 c-30 -30 -9 -104 40 -143 35 -28 66 -24 78 10 12 35 -23
108 -63 132 -35 21 -36 21 -55 1z"/>
<path d="M3308 4773 c-3 -103 -1 -120 15 -136 10 -10 22 -15 28 -12 5 4 9 57
8 126 -1 105 -3 120 -19 129 -10 6 -21 10 -24 10 -3 0 -6 -53 -8 -117z"/>
<path d="M8231 4874 c0 -11 3 -14 6 -6 3 7 2 16 -1 19 -3 4 -6 -2 -5 -13z"/>
<path d="M8494 4875 c-3 -8 -4 -20 -2 -27 3 -7 7 -1 10 15 6 29 1 36 -8 12z"/>
<path d="M3400 4711 c0 -117 2 -129 19 -134 17 -4 19 4 24 107 3 85 1 116 -9
134 -28 43 -34 23 -34 -107z"/>
<path d="M8211 4814 c0 -11 3 -14 6 -6 3 7 2 16 -1 19 -3 4 -6 -2 -5 -13z"/>
<path d="M3496 4783 c-12 -12 -6 -239 6 -251 32 -32 38 -14 38 111 0 109 -2
123 -19 134 -10 7 -22 9 -25 6z"/>
<path d="M8216 4765 c4 -8 8 -15 10 -15 2 0 4 7 4 15 0 8 -4 15 -10 15 -5 0
-7 -7 -4 -15z"/>
<path d="M8181 4734 c0 -11 3 -14 6 -6 3 7 2 16 -1 19 -3 4 -6 -2 -5 -13z"/>
<path d="M8512 4715 c0 -16 2 -22 5 -12 2 9 2 23 0 30 -3 6 -5 -1 -5 -18z"/>
<path d="M3590 4605 c0 -69 2 -125 4 -125 2 0 11 -3 20 -6 14 -5 16 9 16 119
0 105 -3 126 -16 131 -9 3 -18 6 -20 6 -2 0 -4 -56 -4 -125z"/>
<path d="M3680 4555 c0 -111 2 -125 19 -134 10 -6 21 -7 25 -4 3 3 6 59 6 124
0 107 -2 119 -19 129 -11 5 -22 10 -25 10 -3 0 -6 -56 -6 -125z"/>
<path d="M8142 4600 c0 -14 2 -19 5 -12 2 6 2 18 0 25 -3 6 -5 1 -5 -13z"/>
<path d="M9090 4566 c-96 -55 -365 -211 -453 -263 l-69 -40 -34 34 c-19 18
-34 30 -34 26 0 -4 -4 -3 -8 2 -4 6 -29 20 -56 33 -39 19 -47 26 -35 34 11 8
10 9 -4 4 -22 -7 -171 76 -160 89 5 4 3 5 -4 1 -7 -4 -31 5 -54 20 -38 24 -44
25 -54 11 -6 -9 -24 -21 -40 -27 l-27 -10 71 -51 c39 -27 76 -47 81 -44 6 4 9
2 8 -3 -4 -13 130 -104 142 -97 5 3 24 -10 42 -30 29 -31 79 -51 63 -24 -4 6
-14 8 -24 4 -13 -5 -14 -4 -3 7 10 10 17 8 35 -11 12 -13 16 -21 10 -17 -19
11 -15 -5 5 -20 20 -15 36 -18 28 -5 -9 14 24 22 42 11 14 -9 13 -10 -5 -5
-17 5 -23 2 -23 -9 0 -10 6 -13 17 -9 11 4 14 3 9 -5 -5 -8 0 -12 14 -12 13 0
19 4 14 12 -4 6 -3 8 3 5 14 -9 83 12 83 25 0 5 7 7 16 4 15 -6 15 -4 3 10
-13 16 -11 17 16 10 29 -7 29 -7 8 8 -11 9 -33 20 -47 26 -24 9 -37 30 -18 30
4 0 72 39 152 86 80 48 161 95 180 106 85 49 200 120 200 124 0 9 -19 1 -90
-40z m-959 -96 c6 0 7 5 3 12 -5 7 -3 8 5 3 9 -5 9 -11 3 -17 -12 -12 -32 -2
-31 15 0 9 2 9 6 0 2 -7 9 -13 14 -13z m319 -180 c-8 -5 -19 -10 -25 -10 -5 0
-3 5 5 10 8 5 20 10 25 10 6 0 3 -5 -5 -10z m73 -35 c19 5 20 5 4 -5 -21 -13
-37 -5 -36 18 1 15 2 15 6 -1 3 -13 11 -16 26 -12z m104 -1 c-3 -3 -12 -4 -19
-1 -8 3 -5 6 6 6 11 1 17 -2 13 -5z m-77 -24 c0 -5 -2 -10 -4 -10 -3 0 -8 5
-11 10 -3 6 -1 10 4 10 6 0 11 -4 11 -10z m-30 -10 c0 -5 -2 -10 -4 -10 -3 0
-8 5 -11 10 -3 6 -1 10 4 10 6 0 11 -4 11 -10z m139 -16 c14 -12 -19 -1 -35
12 -18 14 -18 14 6 3 14 -6 27 -13 29 -15z m-32 -10 c-3 -3 -12 -4 -19 -1 -8
3 -5 6 6 6 11 1 17 -2 13 -5z"/>
<path d="M8491 4544 c0 -11 3 -14 6 -6 3 7 2 16 -1 19 -3 4 -6 -2 -5 -13z"/>
<path d="M8140 4540 c8 -5 20 -10 25 -10 6 0 3 5 -5 10 -8 5 -19 10 -25 10 -5
0 -3 -5 5 -10z"/>
<path d="M4986 4469 c-10 -10 -24 -15 -30 -12 -6 4 -5 -1 3 -11 8 -10 23 -15
33 -13 10 3 18 1 18 -4 0 -5 5 -9 11 -9 6 0 9 7 6 15 -4 8 -1 17 5 21 6 4 8 3
4 -4 -9 -15 8 -24 30 -15 15 6 14 8 -7 16 -13 6 -29 9 -36 8 -6 -1 -13 5 -15
12 -2 11 -7 10 -22 -4z m14 -19 c-8 -5 -19 -10 -25 -10 -5 0 -3 5 5 10 8 5 20
10 25 10 6 0 3 -5 -5 -10z"/>
<path d="M8491 4414 c0 -11 3 -14 6 -6 3 7 2 16 -1 19 -3 4 -6 -2 -5 -13z"/>
<path d="M5160 4372 c0 -20 3 -21 20 -12 11 6 20 13 20 16 0 3 -5 2 -11 -2 -6
-3 -15 0 -20 7 -6 10 -9 8 -9 -9z"/>
<path d="M5123 4362 c-9 -6 -7 -11 7 -20 12 -7 20 -8 20 -2 0 5 -6 10 -12 10
-9 0 -8 4 2 10 8 5 11 10 5 10 -5 0 -15 -4 -22 -8z"/>
<path d="M5185 4344 c-16 -13 -22 -22 -12 -18 12 4 17 2 15 -6 -2 -7 3 -15 10
-17 8 -3 10 1 5 14 -6 16 -5 16 10 4 9 -7 17 -9 17 -3 0 5 -7 13 -16 16 -13 5
-14 9 -4 21 18 22 9 18 -25 -11z"/>
<path d="M8542 4330 c0 -14 2 -19 5 -12 2 6 2 18 0 25 -3 6 -5 1 -5 -13z"/>
<path d="M5247 4324 c-3 -3 -3 -12 0 -20 4 -10 0 -12 -13 -7 -12 4 -15 3 -10
-6 5 -7 14 -10 21 -7 7 2 17 0 21 -4 5 -5 15 -5 24 1 13 9 12 10 -2 5 -18 -5
-43 25 -31 38 3 3 4 6 1 6 -2 0 -7 -3 -11 -6z"/>
<path d="M5296 4246 c10 -8 21 -12 24 -10 5 6 -21 24 -34 24 -6 0 -1 -6 10
-14z"/>
<path d="M4346 4234 c-3 -9 -6 -49 -6 -89 l0 -74 58 -34 c113 -68 410 -237
416 -237 12 0 6 196 -6 212 -12 15 -114 77 -320 194 -80 46 -131 56 -142 28z"/>
<path d="M5406 3683 c-12 -12 -6 -239 6 -251 29 -29 37 -13 40 81 4 123 0 151
-21 164 -11 7 -22 9 -25 6z"/>
<path d="M5490 3512 c0 -117 1 -120 25 -136 l26 -17 -3 133 c-3 129 -4 133
-25 136 -23 3 -23 2 -23 -116z"/>
<path d="M5590 3455 c0 -121 1 -126 23 -134 22 -8 22 -8 25 113 2 105 0 122
-15 133 -9 7 -20 13 -25 13 -4 0 -8 -56 -8 -125z"/>
<path d="M5680 3405 c0 -113 2 -125 19 -135 11 -5 22 -10 25 -10 3 0 6 56 6
125 0 113 -2 125 -19 135 -11 5 -22 10 -25 10 -3 0 -6 -56 -6 -125z"/>
<path d="M5779 3474 c-5 -80 4 -250 14 -256 34 -22 38 -10 35 113 -3 113 -5
123 -25 137 -13 8 -23 11 -24 6z"/>
<path d="M5868 3407 c-2 -12 -1 -71 2 -132 5 -103 6 -110 26 -113 21 -3 22 0
23 116 2 117 1 119 -23 135 -24 16 -25 16 -28 -6z"/>
<path d="M5960 3247 c0 -122 0 -124 25 -135 l25 -12 0 123 c0 123 -6 147 -37
147 -10 0 -13 -29 -13 -123z"/>
<path d="M6050 3199 c0 -104 3 -124 18 -135 9 -7 20 -14 25 -14 13 0 8 245 -5
258 -32 32 -38 14 -38 -109z"/>
<path d="M6738 2993 c7 -3 16 -2 19 1 4 3 -2 6 -13 5 -11 0 -14 -3 -6 -6z"/>
</g>
</svg>
